<?xml version="1.0" encoding="UTF-8"?>
<!DOCTYPE svg PUBLIC "-//W3C//DTD SVG 1.1//EN" "http://www.w3.org/Graphics/SVG/1.1/DTD/svg11.dtd">
<svg xmlns="http://www.w3.org/2000/svg" version="1.1" width="700px" height="746px" style="shape-rendering:geometricPrecision; text-rendering:geometricPrecision; image-rendering:optimizeQuality; fill-rule:evenodd; clip-rule:evenodd" xmlns:xlink="http://www.w3.org/1999/xlink">
<g><path style="opacity:0.561" fill="#98c6e8" d="M 341.5,156.5 C 341.5,156.833 341.5,157.167 341.5,157.5C 341.273,159.933 342.273,161.599 344.5,162.5C 344.5,162.833 344.5,163.167 344.5,163.5C 344.629,165.216 344.962,166.883 345.5,168.5C 343.244,164.99 341.244,161.323 339.5,157.5C 337.708,157.366 336.042,157.699 334.5,158.5C 336.279,156.656 338.612,155.99 341.5,156.5 Z"/></g>
<g><path style="opacity:1" fill="#50a3e1" d="M 345.5,168.5 C 345.5,169.167 345.833,169.5 346.5,169.5C 348.379,174.786 350.213,180.119 352,185.5C 352.949,187.093 354.115,188.426 355.5,189.5C 357.715,191.586 359.048,194.253 359.5,197.5C 359.957,198.298 360.624,198.631 361.5,198.5C 361.025,201.313 362.025,203.313 364.5,204.5C 364.5,205.833 365.167,206.5 366.5,206.5C 366.5,206.833 366.5,207.167 366.5,207.5C 367.167,210.833 367.833,214.167 368.5,217.5C 366.018,215.497 365.018,212.831 365.5,209.5C 363.09,209.921 361.257,211.254 360,213.5C 357.066,219.63 353.399,225.296 349,230.5C 348.51,231.793 348.343,233.127 348.5,234.5C 347.624,234.369 346.957,234.702 346.5,235.5C 344.473,239.553 342.473,243.553 340.5,247.5C 339.658,251.678 337.492,255.011 334,257.5C 331.72,262.392 329.72,267.392 328,272.5C 322.135,281.174 316.968,290.174 312.5,299.5C 311.624,299.369 310.957,299.702 310.5,300.5C 306.456,307.93 302.456,315.264 298.5,322.5C 297.141,326.882 294.974,330.882 292,334.5C 291.489,336.878 290.822,339.212 290,341.5C 287.598,346.16 284.764,350.494 281.5,354.5C 280.833,354.833 280.167,355.167 279.5,355.5C 281.318,347.185 283.152,338.852 285,330.5C 288.322,320.879 291.488,311.213 294.5,301.5C 297.98,291.625 301.48,281.625 305,271.5C 305.853,267.143 306.687,262.809 307.5,258.5C 307.187,255.753 307.52,253.086 308.5,250.5C 310.129,244.609 312.129,238.943 314.5,233.5C 321.572,211.202 327.905,188.535 333.5,165.5C 333.5,164.833 333.5,164.167 333.5,163.5C 333.366,161.708 333.699,160.042 334.5,158.5C 336.042,157.699 337.708,157.366 339.5,157.5C 341.244,161.323 343.244,164.99 345.5,168.5 Z"/></g>
<g><path style="opacity:0.031" fill="#e2eef6" d="M 341.5,157.5 C 343.25,158.659 344.25,160.326 344.5,162.5C 342.273,161.599 341.273,159.933 341.5,157.5 Z"/></g>
<g><path style="opacity:0.067" fill="#d4e4ed" d="M 341.5,156.5 C 338.612,155.99 336.279,156.656 334.5,158.5C 333.699,160.042 333.366,161.708 333.5,163.5C 331.831,165.592 330.164,167.592 328.5,169.5C 329.715,165.1 331.215,160.767 333,156.5C 336.026,153.928 338.859,153.928 341.5,156.5 Z"/></g>
<g><path style="opacity:0.122" fill="#e2f0f9" d="M 344.5,163.5 C 346.539,164.911 347.539,166.911 347.5,169.5C 347.167,169.5 346.833,169.5 346.5,169.5C 345.833,169.5 345.5,169.167 345.5,168.5C 344.962,166.883 344.629,165.216 344.5,163.5 Z"/></g>
<g><path style="opacity:0.024" fill="#eaeeee" d="M 347.5,169.5 C 349.25,170.659 350.25,172.326 350.5,174.5C 348.592,173.514 347.592,171.848 347.5,169.5 Z"/></g>
<g><path style="opacity:0.729" fill="#99c5e6" d="M 346.5,169.5 C 346.833,169.5 347.167,169.5 347.5,169.5C 347.592,171.848 348.592,173.514 350.5,174.5C 350.5,174.833 350.5,175.167 350.5,175.5C 349.916,178.285 350.916,179.952 353.5,180.5C 354.434,181.568 354.768,182.901 354.5,184.5C 354.629,186.216 354.962,187.883 355.5,189.5C 354.115,188.426 352.949,187.093 352,185.5C 350.213,180.119 348.379,174.786 346.5,169.5 Z"/></g>
<g><path style="opacity:0.024" fill="#dce5ed" d="M 350.5,175.5 C 351.64,177.045 352.64,178.712 353.5,180.5C 350.916,179.952 349.916,178.285 350.5,175.5 Z"/></g>
<g><path style="opacity:0.678" fill="#a9d8ed" d="M 333.5,163.5 C 333.5,164.167 333.5,164.833 333.5,165.5C 331.284,168.415 329.951,171.748 329.5,175.5C 328.542,175.953 327.708,176.619 327,177.5C 326.667,179.5 326.333,181.5 326,183.5C 324.768,186.412 323.268,189.078 321.5,191.5C 323.036,186.891 324.37,182.224 325.5,177.5C 325.603,174.364 326.603,171.698 328.5,169.5C 330.164,167.592 331.831,165.592 333.5,163.5 Z"/></g>
<g><path style="opacity:0.216" fill="#d4e8f1" d="M 325.5,177.5 C 324.37,182.224 323.036,186.891 321.5,191.5C 321.201,193.455 320.201,194.789 318.5,195.5C 320.235,189.19 322.568,183.19 325.5,177.5 Z"/></g>
<g><path style="opacity:0.169" fill="#cce1f0" d="M 354.5,184.5 C 356.057,187.154 357.89,189.82 360,192.5C 360.505,194.518 361.005,196.518 361.5,198.5C 360.624,198.631 359.957,198.298 359.5,197.5C 359.048,194.253 357.715,191.586 355.5,189.5C 354.962,187.883 354.629,186.216 354.5,184.5 Z"/></g>
<g><path style="opacity:1" fill="#5db0e4" d="M 333.5,165.5 C 327.905,188.535 321.572,211.202 314.5,233.5C 315.857,223.918 318.357,214.585 322,205.5C 324.401,195.382 326.901,185.382 329.5,175.5C 329.951,171.748 331.284,168.415 333.5,165.5 Z"/></g>
<g><path style="opacity:0.122" fill="#d9e7f4" d="M 361.5,198.5 C 363.379,199.895 364.379,201.895 364.5,204.5C 362.025,203.313 361.025,201.313 361.5,198.5 Z"/></g>
<g><path style="opacity:0.047" fill="#dbeaf0" d="M 318.5,195.5 C 318.067,198.166 317.567,200.832 317,203.5C 315.454,206.439 313.621,209.106 311.5,211.5C 312.428,208.546 313.261,205.546 314,202.5C 315.352,199.893 316.852,197.56 318.5,195.5 Z"/></g>
<g><path style="opacity:0.059" fill="#ebf5fb" d="M 364.5,204.5 C 365.833,204.5 366.5,205.167 366.5,206.5C 366.5,205.167 365.833,204.5 364.5,204.5 Z"/></g>
<g><path style="opacity:0.208" fill="#cee0f2" d="M 366.5,207.5 C 369.211,211.96 371.545,216.627 373.5,221.5C 372.833,221.5 372.167,221.5 371.5,221.5C 371.532,219.381 370.532,218.048 368.5,217.5C 367.833,214.167 367.167,210.833 366.5,207.5 Z"/></g>
<g><path style="opacity:1" fill="#1077d8" d="M 368.5,217.5 C 369.541,220.391 370.874,223.058 372.5,225.5C 373.167,225.833 373.833,226.167 374.5,226.5C 374.5,227.167 374.5,227.833 374.5,228.5C 375.935,231.711 377.102,235.045 378,238.5C 378.708,239.381 379.542,240.047 380.5,240.5C 381.404,241.209 381.737,242.209 381.5,243.5C 383.582,248.217 384.915,253.217 385.5,258.5C 384.89,259.391 384.557,260.391 384.5,261.5C 383.694,262.728 382.694,263.728 381.5,264.5C 378.006,268.813 374.506,273.146 371,277.5C 370.209,278.745 369.709,280.078 369.5,281.5C 367.44,282.215 365.774,283.549 364.5,285.5C 363.063,288.716 361.396,291.716 359.5,294.5C 358.504,294.414 357.671,294.748 357,295.5C 354.843,297.817 353.343,300.484 352.5,303.5C 352.5,303.833 352.5,304.167 352.5,304.5C 348.23,307.7 344.896,311.7 342.5,316.5C 339.04,320.055 336.04,324.055 333.5,328.5C 332.396,330.389 331.063,332.055 329.5,333.5C 327.896,334.287 327.229,335.62 327.5,337.5C 326.5,337.5 325.5,337.5 324.5,337.5C 321.602,344.268 317.435,350.268 312,355.5C 311.517,356.448 311.351,357.448 311.5,358.5C 310.833,358.5 310.5,358.833 310.5,359.5C 308.071,360.265 306.738,361.931 306.5,364.5C 304.937,365.945 303.604,367.611 302.5,369.5C 297.607,374.239 293.607,379.573 290.5,385.5C 288.186,387.83 286.186,390.496 284.5,393.5C 284.5,394.167 284.167,394.5 283.5,394.5C 282.094,394.973 281.427,395.973 281.5,397.5C 278.395,400.275 276.062,403.608 274.5,407.5C 272.554,408.035 271.554,409.368 271.5,411.5C 268.049,414.383 265.049,417.716 262.5,421.5C 261.897,419.374 261.897,417.041 262.5,414.5C 262.328,413.508 262.662,412.842 263.5,412.5C 266.277,405.822 268.277,398.822 269.5,391.5C 269.288,387.655 270.288,384.321 272.5,381.5C 274.118,377.425 275.118,373.092 275.5,368.5C 275.5,367.833 275.5,367.167 275.5,366.5C 275.328,365.508 275.662,364.842 276.5,364.5C 278.967,361.663 280.633,358.329 281.5,354.5C 284.764,350.494 287.598,346.16 290,341.5C 290.822,339.212 291.489,336.878 292,334.5C 294.974,330.882 297.141,326.882 298.5,322.5C 304.432,315.642 309.099,307.975 312.5,299.5C 316.968,290.174 322.135,281.174 328,272.5C 329.72,267.392 331.72,262.392 334,257.5C 337.492,255.011 339.658,251.678 340.5,247.5C 344.43,243.979 347.097,239.645 348.5,234.5C 348.343,233.127 348.51,231.793 349,230.5C 353.399,225.296 357.066,219.63 360,213.5C 361.257,211.254 363.09,209.921 365.5,209.5C 365.018,212.831 366.018,215.497 368.5,217.5 Z"/></g>
<g><path style="opacity:0.361" fill="#d3e5ed" d="M 311.5,211.5 C 311.453,214.568 310.953,217.568 310,220.5C 308.648,223.107 307.148,225.44 305.5,227.5C 305.523,225.073 306.023,222.74 307,220.5C 308.417,217.387 309.917,214.387 311.5,211.5 Z"/></g>
<g><path style="opacity:0.776" fill="#5196dc" d="M 368.5,217.5 C 370.532,218.048 371.532,219.381 371.5,221.5C 371.833,222.833 372.167,224.167 372.5,225.5C 370.874,223.058 369.541,220.391 368.5,217.5 Z"/></g>
<g><path style="opacity:0.376" fill="#96c0ea" d="M 371.5,221.5 C 372.167,221.5 372.833,221.5 373.5,221.5C 374.11,222.391 374.443,223.391 374.5,224.5C 374.5,225.167 374.5,225.833 374.5,226.5C 373.833,226.167 373.167,225.833 372.5,225.5C 372.167,224.167 371.833,222.833 371.5,221.5 Z"/></g>
<g><path style="opacity:0.047" fill="#dcecf9" d="M 374.5,224.5 C 376.104,225.287 376.771,226.62 376.5,228.5C 375.833,228.5 375.167,228.5 374.5,228.5C 374.5,227.833 374.5,227.167 374.5,226.5C 374.5,225.833 374.5,225.167 374.5,224.5 Z"/></g>
<g><path style="opacity:0.027" fill="#e1e8f0" d="M 377.5,230.5 C 378.906,230.973 379.573,231.973 379.5,233.5C 377.952,233.179 377.285,232.179 377.5,230.5 Z"/></g>
<g><path style="opacity:0.91" fill="#69a3e1" d="M 374.5,228.5 C 375.167,228.5 375.833,228.5 376.5,228.5C 377.338,228.842 377.672,229.508 377.5,230.5C 377.285,232.179 377.952,233.179 379.5,233.5C 379.517,235.565 379.85,237.565 380.5,239.5C 380.5,239.833 380.5,240.167 380.5,240.5C 379.542,240.047 378.708,239.381 378,238.5C 377.102,235.045 375.935,231.711 374.5,228.5 Z"/></g>
<g><path style="opacity:0.016" fill="#d5e2ea" d="M 379.5,233.5 C 380.492,235.456 381.492,237.456 382.5,239.5C 381.833,239.5 381.167,239.5 380.5,239.5C 379.85,237.565 379.517,235.565 379.5,233.5 Z"/></g>
<g><path style="opacity:1" fill="#2989db" d="M 348.5,234.5 C 347.097,239.645 344.43,243.979 340.5,247.5C 342.473,243.553 344.473,239.553 346.5,235.5C 346.957,234.702 347.624,234.369 348.5,234.5 Z"/></g>
<g><path style="opacity:1" fill="#6fc2e7" d="M 329.5,175.5 C 326.901,185.382 324.401,195.382 322,205.5C 318.357,214.585 315.857,223.918 314.5,233.5C 312.129,238.943 310.129,244.609 308.5,250.5C 307.52,253.086 307.187,255.753 307.5,258.5C 303.362,269.277 299.529,280.277 296,291.5C 295.39,294.827 294.89,298.161 294.5,301.5C 291.488,311.213 288.322,320.879 285,330.5C 283.152,338.852 281.318,347.185 279.5,355.5C 278.304,358.421 277.304,361.421 276.5,364.5C 275.662,364.842 275.328,365.508 275.5,366.5C 273.871,367.625 272.371,368.959 271,370.5C 266.058,379.866 261.224,389.2 256.5,398.5C 251.53,406.329 246.697,414.329 242,422.5C 240.527,426.779 238.527,430.779 236,434.5C 235.51,435.793 235.343,437.127 235.5,438.5C 230.542,444.083 226.875,450.416 224.5,457.5C 224.167,458.5 223.5,459.167 222.5,459.5C 219.834,459.933 217.168,460.433 214.5,461C 213.385,463.131 212.052,464.965 210.5,466.5C 210.725,463.454 212.058,461.121 214.5,459.5C 216.645,453.938 218.645,448.271 220.5,442.5C 220.833,440.5 221.167,438.5 221.5,436.5C 221.5,435.833 221.5,435.167 221.5,434.5C 223.614,433.216 224.614,431.216 224.5,428.5C 225.167,428.5 225.833,428.5 226.5,428.5C 230.366,423.259 232.699,417.259 233.5,410.5C 236.969,402.631 240.135,394.631 243,386.5C 243.495,384.527 243.662,382.527 243.5,380.5C 244.496,380.586 245.329,380.252 246,379.5C 248.827,374.593 250.327,369.26 250.5,363.5C 250.5,363.167 250.5,362.833 250.5,362.5C 251.458,362.047 252.292,361.381 253,360.5C 255.23,353.814 258.23,347.481 262,341.5C 262.455,338.146 262.955,334.813 263.5,331.5C 263.5,331.167 263.5,330.833 263.5,330.5C 264.167,330.5 264.833,330.5 265.5,330.5C 268.971,325.765 271.305,320.432 272.5,314.5C 276.796,304.147 280.463,293.481 283.5,282.5C 285.668,277.84 288.168,273.173 291,268.5C 293.117,263.354 294.783,258.021 296,252.5C 300.234,244.557 303.401,236.224 305.5,227.5C 307.148,225.44 308.648,223.107 310,220.5C 310.953,217.568 311.453,214.568 311.5,211.5C 313.621,209.106 315.454,206.439 317,203.5C 317.567,200.832 318.067,198.166 318.5,195.5C 320.201,194.789 321.201,193.455 321.5,191.5C 323.268,189.078 324.768,186.412 326,183.5C 326.333,181.5 326.667,179.5 327,177.5C 327.708,176.619 328.542,175.953 329.5,175.5 Z"/></g>
<g><path style="opacity:0.075" fill="#bed6eb" d="M 380.5,240.5 C 380.5,240.167 380.5,239.833 380.5,239.5C 381.167,239.5 381.833,239.5 382.5,239.5C 383.877,242.524 385.21,245.524 386.5,248.5C 385.833,248.5 385.167,248.5 384.5,248.5C 384.25,246.326 383.25,244.659 381.5,243.5C 381.737,242.209 381.404,241.209 380.5,240.5 Z"/></g>
<g><path style="opacity:0.988" fill="#3086db" d="M 381.5,243.5 C 383.25,244.659 384.25,246.326 384.5,248.5C 385.407,251.058 386.407,253.558 387.5,256C 387.316,257.376 386.649,258.209 385.5,258.5C 384.915,253.217 383.582,248.217 381.5,243.5 Z"/></g>
<g><path style="opacity:0.086" fill="#9ec6ee" d="M 384.5,248.5 C 385.167,248.5 385.833,248.5 386.5,248.5C 390.338,252.948 390.338,257.282 386.5,261.5C 385.833,261.5 385.167,261.5 384.5,261.5C 384.557,260.391 384.89,259.391 385.5,258.5C 386.649,258.209 387.316,257.376 387.5,256C 386.407,253.558 385.407,251.058 384.5,248.5 Z"/></g>
<g><path style="opacity:0.325" fill="#d3e8f2" d="M 305.5,227.5 C 303.401,236.224 300.234,244.557 296,252.5C 294.783,258.021 293.117,263.354 291,268.5C 288.168,273.173 285.668,277.84 283.5,282.5C 286.697,272.429 290.197,262.429 294,252.5C 298.002,244.975 301.169,237.142 303.5,229C 303.836,227.97 304.503,227.47 305.5,227.5 Z"/></g>
<g><path style="opacity:0.043" fill="#d0e0ed" d="M 384.5,261.5 C 385.167,261.5 385.833,261.5 386.5,261.5C 384.471,266.224 381.471,270.224 377.5,273.5C 378.785,270.526 380.118,267.526 381.5,264.5C 382.694,263.728 383.694,262.728 384.5,261.5 Z"/></g>
<g><path style="opacity:1" fill="#5baee4" d="M 307.5,258.5 C 306.687,262.809 305.853,267.143 305,271.5C 301.48,281.625 297.98,291.625 294.5,301.5C 294.89,298.161 295.39,294.827 296,291.5C 299.529,280.277 303.362,269.277 307.5,258.5 Z"/></g>
<g><path style="opacity:0.206" fill="#dbeef8" d="M 399.5,278.5 C 398.143,277.41 397.143,276.076 396.5,274.5C 396.582,272.748 395.749,271.748 394,271.5C 392.357,272.315 390.857,273.315 389.5,274.5C 390.195,270.484 392.528,268.984 396.5,270C 398.585,272.419 399.585,275.253 399.5,278.5 Z"/></g>
<g><path style="opacity:0.557" fill="#76abe3" d="M 381.5,264.5 C 380.118,267.526 378.785,270.526 377.5,273.5C 377.672,274.492 377.338,275.158 376.5,275.5C 375.5,275.833 374.833,276.5 374.5,277.5C 372.427,278.3 370.76,279.633 369.5,281.5C 369.709,280.078 370.209,278.745 371,277.5C 374.506,273.146 378.006,268.813 381.5,264.5 Z"/></g>
<g><path style="opacity:0.008" fill="#ecf1f1" d="M 376.5,275.5 C 376.5,276.833 375.833,277.5 374.5,277.5C 374.833,276.5 375.5,275.833 376.5,275.5 Z"/></g>
<g><path style="opacity:1" fill="#6dc2e7" d="M 396.5,274.5 C 395.235,275.514 394.569,277.014 394.5,279C 394.508,280.707 394.842,282.207 395.5,283.5C 395.917,300.834 396.417,318.167 397,335.5C 397.578,342.798 398.744,349.964 400.5,357C 400.167,358.833 399.833,360.667 399.5,362.5C 398.172,359.852 396.506,357.519 394.5,355.5C 385.49,341.198 376.157,326.865 366.5,312.5C 365.675,311.614 364.675,311.281 363.5,311.5C 363.5,310.833 363.5,310.167 363.5,309.5C 369.258,306.404 373.258,301.738 375.5,295.5C 377.102,293.301 378.936,291.301 381,289.5C 382.852,284.977 385.518,280.977 389,277.5C 389.483,276.552 389.649,275.552 389.5,274.5C 390.857,273.315 392.357,272.315 394,271.5C 395.749,271.748 396.582,272.748 396.5,274.5 Z"/></g>
<g><path style="opacity:1" fill="#51a4e2" d="M 412.5,311.5 C 413.404,312.209 413.737,313.209 413.5,314.5C 413.552,317.346 414.552,319.68 416.5,321.5C 417.1,322.9 418.1,323.9 419.5,324.5C 420.26,329.347 421.594,334.014 423.5,338.5C 423.908,342.858 425.575,346.525 428.5,349.5C 429.105,354.032 430.772,358.032 433.5,361.5C 433.755,363.967 434.755,365.967 436.5,367.5C 439.148,373.466 441.481,379.466 443.5,385.5C 445.797,391.416 448.463,397.082 451.5,402.5C 455.483,411.804 459.483,421.138 463.5,430.5C 463.343,431.873 463.51,433.207 464,434.5C 465.771,438.256 467.604,441.923 469.5,445.5C 470.9,448.687 472.734,451.687 475,454.5C 480.639,469.341 486.472,484.008 492.5,498.5C 493.03,501.682 494.03,504.682 495.5,507.5C 493.861,505.194 491.861,503.194 489.5,501.5C 479.773,486.394 470.273,471.06 461,455.5C 457.793,453.295 455.793,450.295 455,446.5C 454,445.833 453,445.167 452,444.5C 450.321,440.207 448.321,436.207 446,432.5C 441.23,425.946 436.23,419.613 431,413.5C 426.888,404.388 421.555,396.054 415,388.5C 411.941,380.961 407.608,374.294 402,368.5C 401.502,371.482 401.335,374.482 401.5,377.5C 400.264,373.299 400.264,368.965 401.5,364.5C 399.403,337.366 397.403,310.366 395.5,283.5C 395.338,281.473 395.505,279.473 396,277.5C 399.295,281.311 400.295,285.645 399,290.5C 399.414,290.043 399.914,289.709 400.5,289.5C 400.876,292.389 402.376,294.389 405,295.5C 405.392,298.188 405.892,300.855 406.5,303.5C 404.319,305.13 404.319,306.463 406.5,307.5C 407.086,307.291 407.586,306.957 408,306.5C 409.067,308.692 410.567,310.358 412.5,311.5 Z"/></g>
<g><path style="opacity:0.082" fill="#d3e3ee" d="M 399.5,278.5 C 400.458,278.953 401.292,279.619 402,280.5C 404.241,284.916 405.741,289.582 406.5,294.5C 405.542,294.047 404.708,293.381 404,292.5C 402.206,287.915 400.706,283.249 399.5,278.5 Z"/></g>
<g><path style="opacity:0.997" fill="#6eb1e3" d="M 396.5,274.5 C 397.143,276.076 398.143,277.41 399.5,278.5C 400.706,283.249 402.206,287.915 404,292.5C 404.708,293.381 405.542,294.047 406.5,294.5C 406.031,297.393 407.031,299.393 409.5,300.5C 409.5,300.833 409.5,301.167 409.5,301.5C 408.916,304.285 409.916,305.952 412.5,306.5C 412.5,306.833 412.5,307.167 412.5,307.5C 412.5,308.833 412.5,310.167 412.5,311.5C 410.567,310.358 409.067,308.692 408,306.5C 407.586,306.957 407.086,307.291 406.5,307.5C 404.319,306.463 404.319,305.13 406.5,303.5C 405.892,300.855 405.392,298.188 405,295.5C 402.376,294.389 400.876,292.389 400.5,289.5C 399.914,289.709 399.414,290.043 399,290.5C 400.295,285.645 399.295,281.311 396,277.5C 395.505,279.473 395.338,281.473 395.5,283.5C 394.842,282.207 394.508,280.707 394.5,279C 394.569,277.014 395.235,275.514 396.5,274.5 Z"/></g>
<g><path style="opacity:0.573" fill="#62a1df" d="M 369.5,281.5 C 367.464,284.371 365.63,287.371 364,290.5C 362.693,292.192 361.193,293.525 359.5,294.5C 361.396,291.716 363.063,288.716 364.5,285.5C 365.774,283.549 367.44,282.215 369.5,281.5 Z"/></g>
<g><path style="opacity:0.486" fill="#cde8f4" d="M 389.5,274.5 C 389.649,275.552 389.483,276.552 389,277.5C 385.518,280.977 382.852,284.977 381,289.5C 378.936,291.301 377.102,293.301 375.5,295.5C 374.833,295.5 374.167,295.5 373.5,295.5C 373.709,294.078 374.209,292.745 375,291.5C 380.129,285.888 384.962,280.221 389.5,274.5 Z"/></g>
<g><path style="opacity:0.659" fill="#559be1" d="M 359.5,294.5 C 357.518,297.81 355.185,300.81 352.5,303.5C 353.343,300.484 354.843,297.817 357,295.5C 357.671,294.748 358.504,294.414 359.5,294.5 Z"/></g>
<g><path style="opacity:0.043" fill="#cadeec" d="M 406.5,294.5 C 408.379,295.895 409.379,297.895 409.5,300.5C 407.031,299.393 406.031,297.393 406.5,294.5 Z"/></g>
<g><path style="opacity:0.698" fill="#addaef" d="M 373.5,295.5 C 374.167,295.5 374.833,295.5 375.5,295.5C 373.258,301.738 369.258,306.404 363.5,309.5C 363.979,307.111 365.312,305.444 367.5,304.5C 369.55,302.763 371.383,300.763 373,298.5C 373.483,297.552 373.649,296.552 373.5,295.5 Z"/></g>
<g><path style="opacity:0.416" fill="#d1eaf5" d="M 283.5,282.5 C 280.463,293.481 276.796,304.147 272.5,314.5C 271.5,315.167 270.5,315.833 269.5,316.5C 273.648,304.881 278.315,293.547 283.5,282.5 Z"/></g>
<g><path style="opacity:0.024" fill="#d4e2ee" d="M 374.5,277.5 C 373.91,278.766 373.41,280.099 373,281.5C 364.561,291.755 356.394,302.088 348.5,312.5C 349.782,309.863 351.115,307.196 352.5,304.5C 352.5,304.167 352.5,303.833 352.5,303.5C 355.185,300.81 357.518,297.81 359.5,294.5C 361.193,293.525 362.693,292.192 364,290.5C 365.63,287.371 367.464,284.371 369.5,281.5C 370.76,279.633 372.427,278.3 374.5,277.5 Z"/></g>
<g><path style="opacity:0.027" fill="#e2f2f8" d="M 373.5,295.5 C 373.649,296.552 373.483,297.552 373,298.5C 371.383,300.763 369.55,302.763 367.5,304.5C 368.791,300.903 370.791,297.903 373.5,295.5 Z"/></g>
<g><path style="opacity:0.012" fill="#dae6ed" d="M 409.5,301.5 C 411.408,302.486 412.408,304.152 412.5,306.5C 409.916,305.952 408.916,304.285 409.5,301.5 Z"/></g>
<g><path style="opacity:1" fill="#318edd" d="M 312.5,299.5 C 309.099,307.975 304.432,315.642 298.5,322.5C 302.456,315.264 306.456,307.93 310.5,300.5C 310.957,299.702 311.624,299.369 312.5,299.5 Z"/></g>
<g><path style="opacity:0.576" fill="#6aa6e3" d="M 352.5,304.5 C 351.115,307.196 349.782,309.863 348.5,312.5C 346.5,312.5 345.5,313.5 345.5,315.5C 344.609,316.11 343.609,316.443 342.5,316.5C 344.896,311.7 348.23,307.7 352.5,304.5 Z"/></g>
<g><path style="opacity:0.153" fill="#dfeef7" d="M 412.5,307.5 C 413.912,309.604 414.912,311.937 415.5,314.5C 414.833,314.5 414.167,314.5 413.5,314.5C 413.737,313.209 413.404,312.209 412.5,311.5C 412.5,310.167 412.5,308.833 412.5,307.5 Z"/></g>
<g><path style="opacity:0.067" fill="#d9e9ed" d="M 363.5,309.5 C 363.5,310.167 363.5,310.833 363.5,311.5C 363.167,311.5 362.833,311.5 362.5,311.5C 361.145,313.521 359.479,315.188 357.5,316.5C 358.412,314.405 359.579,312.405 361,310.5C 361.671,309.748 362.504,309.414 363.5,309.5 Z"/></g>
<g><path style="opacity:1" fill="#1ba4e0" d="M 362.5,311.5 C 362.833,311.5 363.167,311.5 363.5,311.5C 364.675,311.281 365.675,311.614 366.5,312.5C 376.157,326.865 385.49,341.198 394.5,355.5C 395.118,358.398 396.285,361.065 398,363.5C 399.011,364.337 400.178,364.67 401.5,364.5C 400.264,368.965 400.264,373.299 401.5,377.5C 401.5,377.833 401.5,378.167 401.5,378.5C 401.901,391.542 402.568,404.542 403.5,417.5C 402.833,417.5 402.167,417.5 401.5,417.5C 399.833,416.833 398.167,416.167 396.5,415.5C 396.5,413.5 395.5,412.5 393.5,412.5C 393.5,410.5 392.5,409.5 390.5,409.5C 389.5,405.833 387.167,403.5 383.5,402.5C 382.962,400.883 382.629,399.216 382.5,397.5C 380.784,397.371 379.117,397.038 377.5,396.5C 377.043,394.227 375.71,392.894 373.5,392.5C 373.443,391.391 373.11,390.391 372.5,389.5C 371.766,388.292 371.433,386.959 371.5,385.5C 370.167,385.5 368.833,385.5 367.5,385.5C 364.861,380.861 361.194,377.194 356.5,374.5C 355.24,371.404 353.074,369.071 350,367.5C 349.099,364.929 347.766,362.596 346,360.5C 345.184,359.177 344.017,358.511 342.5,358.5C 341.5,358.167 340.833,357.5 340.5,356.5C 338.799,353.675 337.966,350.675 338,347.5C 340.832,343.172 343.665,338.838 346.5,334.5C 347.67,332.721 349.336,331.721 351.5,331.5C 352.282,327.72 353.948,324.387 356.5,321.5C 360.531,319.447 362.531,316.113 362.5,311.5 Z"/></g>
<g><path style="opacity:0.031" fill="#ddecf8" d="M 348.5,312.5 C 347.833,313.833 346.833,314.833 345.5,315.5C 345.5,313.5 346.5,312.5 348.5,312.5 Z"/></g>
<g><path style="opacity:0.141" fill="#d2e2f1" d="M 345.5,315.5 C 343.88,319.434 341.546,322.767 338.5,325.5C 339.833,322.5 341.167,319.5 342.5,316.5C 343.609,316.443 344.609,316.11 345.5,315.5 Z"/></g>
<g><path style="opacity:0.173" fill="#d9edf6" d="M 357.5,316.5 C 357.371,318.216 357.038,319.883 356.5,321.5C 355.833,321.5 355.167,321.5 354.5,321.5C 354.592,319.152 355.592,317.486 357.5,316.5 Z"/></g>
<g><path style="opacity:0.996" fill="#5ab8e2" d="M 362.5,311.5 C 362.531,316.113 360.531,319.447 356.5,321.5C 357.038,319.883 357.371,318.216 357.5,316.5C 359.479,315.188 361.145,313.521 362.5,311.5 Z"/></g>
<g><path style="opacity:0.557" fill="#9cd1e9" d="M 272.5,314.5 C 271.305,320.432 268.971,325.765 265.5,330.5C 266.15,328.565 266.483,326.565 266.5,324.5C 266.5,324.167 266.5,323.833 266.5,323.5C 269.092,321.964 270.092,319.631 269.5,316.5C 270.5,315.833 271.5,315.167 272.5,314.5 Z"/></g>
<g><path style="opacity:0.039" fill="#cce4f7" d="M 415.5,315.5 C 417.874,317.934 419.208,320.934 419.5,324.5C 418.1,323.9 417.1,322.9 416.5,321.5C 415.85,319.565 415.517,317.565 415.5,315.5 Z"/></g>
<g><path style="opacity:0.718" fill="#88c0ea" d="M 413.5,314.5 C 414.167,314.5 414.833,314.5 415.5,314.5C 415.5,314.833 415.5,315.167 415.5,315.5C 415.517,317.565 415.85,319.565 416.5,321.5C 414.552,319.68 413.552,317.346 413.5,314.5 Z"/></g>
<g><path style="opacity:0.176" fill="#d7e6ed" d="M 269.5,316.5 C 270.092,319.631 269.092,321.964 266.5,323.5C 266.759,320.728 267.759,318.395 269.5,316.5 Z"/></g>
<g><path style="opacity:0.537" fill="#63a2e0" d="M 342.5,316.5 C 341.167,319.5 339.833,322.5 338.5,325.5C 336.596,325.738 335.262,326.738 334.5,328.5C 334.167,328.5 333.833,328.5 333.5,328.5C 336.04,324.055 339.04,320.055 342.5,316.5 Z"/></g>
<g><path style="opacity:0.082" fill="#dbf0fa" d="M 354.5,321.5 C 354.262,323.404 353.262,324.738 351.5,325.5C 351.738,323.596 352.738,322.262 354.5,321.5 Z"/></g>
<g><path style="opacity:0.061" fill="#ddf0f9" d="M 266.5,324.5 C 266.483,326.565 266.15,328.565 265.5,330.5C 264.833,330.5 264.167,330.5 263.5,330.5C 263.755,328.033 264.755,326.033 266.5,324.5 Z"/></g>
<g><path style="opacity:1" fill="#62b7e5" d="M 395.5,283.5 C 397.403,310.366 399.403,337.366 401.5,364.5C 400.178,364.67 399.011,364.337 398,363.5C 396.285,361.065 395.118,358.398 394.5,355.5C 396.506,357.519 398.172,359.852 399.5,362.5C 399.833,360.667 400.167,358.833 400.5,357C 398.744,349.964 397.578,342.798 397,335.5C 396.417,318.167 395.917,300.834 395.5,283.5 Z"/></g>
<g><path style="opacity:0.961" fill="#62bde5" d="M 354.5,321.5 C 355.167,321.5 355.833,321.5 356.5,321.5C 353.948,324.387 352.282,327.72 351.5,331.5C 349.336,331.721 347.67,332.721 346.5,334.5C 348.167,331.5 349.833,328.5 351.5,325.5C 353.262,324.738 354.262,323.404 354.5,321.5 Z"/></g>
<g><path style="opacity:0.004" fill="#e2eef9" d="M 338.5,325.5 C 336.69,329.041 334.356,332.041 331.5,334.5C 332.529,332.483 333.529,330.483 334.5,328.5C 335.262,326.738 336.596,325.738 338.5,325.5 Z"/></g>
<g><path style="opacity:0.184" fill="#cae3eb" d="M 351.5,325.5 C 349.833,328.5 348.167,331.5 346.5,334.5C 345.833,334.5 345.167,334.5 344.5,334.5C 345.343,331.484 346.843,328.817 349,326.5C 349.671,325.748 350.504,325.414 351.5,325.5 Z"/></g>
<g><path style="opacity:0.173" fill="#94c1ed" d="M 333.5,328.5 C 333.833,328.5 334.167,328.5 334.5,328.5C 333.529,330.483 332.529,332.483 331.5,334.5C 330.833,334.5 330.167,334.5 329.5,334.5C 329.5,334.167 329.5,333.833 329.5,333.5C 331.063,332.055 332.396,330.389 333.5,328.5 Z"/></g>
<g><path style="opacity:0.012" fill="#d2e6f5" d="M 419.5,324.5 C 423.106,329.412 425.439,335.078 426.5,341.5C 425.728,340.306 424.728,339.306 423.5,338.5C 421.594,334.014 420.26,329.347 419.5,324.5 Z"/></g>
<g><path style="opacity:0.035" fill="#d6e5ed" d="M 344.5,334.5 C 344.262,336.404 343.262,337.738 341.5,338.5C 341.554,336.368 342.554,335.035 344.5,334.5 Z"/></g>
<g><path style="opacity:0.153" fill="#c9ddf5" d="M 329.5,334.5 C 330.167,334.5 330.833,334.5 331.5,334.5C 331.201,336.455 330.201,337.789 328.5,338.5C 328.433,337.041 328.766,335.708 329.5,334.5 Z"/></g>
<g><path style="opacity:0.086" fill="#e2f0f4" d="M 341.5,338.5 C 340.92,340.749 339.587,342.415 337.5,343.5C 338.08,341.251 339.413,339.585 341.5,338.5 Z"/></g>
<g><path style="opacity:0.047" fill="#d3e5f3" d="M 328.5,338.5 C 327.411,341.689 325.411,344.022 322.5,345.5C 323.957,343.372 324.957,341.038 325.5,338.5C 326.5,338.5 327.5,338.5 328.5,338.5 Z"/></g>
<g><path style="opacity:0.847" fill="#7cb8e6" d="M 423.5,338.5 C 424.728,339.306 425.728,340.306 426.5,341.5C 426.963,344.221 427.629,346.888 428.5,349.5C 425.575,346.525 423.908,342.858 423.5,338.5 Z"/></g>
<g><path style="opacity:0.21" fill="#c4dcec" d="M 426.5,341.5 C 429.107,345.647 431.607,349.98 434,354.5C 434.44,356.866 434.94,359.199 435.5,361.5C 434.833,361.5 434.167,361.5 433.5,361.5C 433.308,356.788 431.641,352.788 428.5,349.5C 427.629,346.888 426.963,344.221 426.5,341.5 Z"/></g>
<g><path style="opacity:0.157" fill="#cfe8f3" d="M 263.5,331.5 C 262.955,334.813 262.455,338.146 262,341.5C 258.23,347.481 255.23,353.814 253,360.5C 252.292,361.381 251.458,362.047 250.5,362.5C 254.432,352.963 258.099,343.297 261.5,333.5C 261.747,332.287 262.414,331.62 263.5,331.5 Z"/></g>
<g><path style="opacity:0.02" fill="#d9e9f9" d="M 321.5,348.5 C 320.833,349.833 319.833,350.833 318.5,351.5C 318.5,349.5 319.5,348.5 321.5,348.5 Z"/></g>
<g><path style="opacity:0.2" fill="#cfe4ec" d="M 337.5,343.5 C 337.085,345.747 336.418,347.914 335.5,350C 336.748,352.073 337.748,354.239 338.5,356.5C 332.45,352.502 332.117,348.168 337.5,343.5 Z"/></g>
<g><path style="opacity:0.863" fill="#65bde3" d="M 344.5,334.5 C 345.167,334.5 345.833,334.5 346.5,334.5C 343.665,338.838 340.832,343.172 338,347.5C 337.966,350.675 338.799,353.675 340.5,356.5C 339.833,356.5 339.167,356.5 338.5,356.5C 337.748,354.239 336.748,352.073 335.5,350C 336.418,347.914 337.085,345.747 337.5,343.5C 339.587,342.415 340.92,340.749 341.5,338.5C 343.262,337.738 344.262,336.404 344.5,334.5 Z"/></g>
<g><path style="opacity:0.478" fill="#6da8e5" d="M 329.5,333.5 C 329.5,333.833 329.5,334.167 329.5,334.5C 328.766,335.708 328.433,337.041 328.5,338.5C 327.5,338.5 326.5,338.5 325.5,338.5C 324.957,341.038 323.957,343.372 322.5,345.5C 322.737,346.791 322.404,347.791 321.5,348.5C 319.5,348.5 318.5,349.5 318.5,351.5C 316.554,352.035 315.554,353.368 315.5,355.5C 313.57,355.771 312.236,356.771 311.5,358.5C 311.351,357.448 311.517,356.448 312,355.5C 317.435,350.268 321.602,344.268 324.5,337.5C 325.5,337.5 326.5,337.5 327.5,337.5C 327.229,335.62 327.896,334.287 329.5,333.5 Z"/></g>
<g><path style="opacity:0.02" fill="#cbe3f7" d="M 318.5,351.5 C 318.446,353.632 317.446,354.965 315.5,355.5C 315.554,353.368 316.554,352.035 318.5,351.5 Z"/></g>
<g><path style="opacity:0.18" fill="#d7eaf3" d="M 338.5,356.5 C 339.167,356.5 339.833,356.5 340.5,356.5C 340.833,357.5 341.5,358.167 342.5,358.5C 343.752,360.001 344.752,361.668 345.5,363.5C 342.549,361.882 340.216,359.549 338.5,356.5 Z"/></g>
<g><path style="opacity:0.62" fill="#7ab7e5" d="M 428.5,349.5 C 431.641,352.788 433.308,356.788 433.5,361.5C 430.772,358.032 429.105,354.032 428.5,349.5 Z"/></g>
<g><path style="opacity:1" fill="#2c8ddd" d="M 281.5,354.5 C 280.633,358.329 278.967,361.663 276.5,364.5C 277.304,361.421 278.304,358.421 279.5,355.5C 280.167,355.167 280.833,354.833 281.5,354.5 Z"/></g>
<g><path style="opacity:0.075" fill="#ccdff3" d="M 315.5,355.5 C 315.291,356.922 314.791,358.255 314,359.5C 310.279,364.047 306.446,368.38 302.5,372.5C 302.5,371.5 302.5,370.5 302.5,369.5C 304.816,368.578 306.483,366.911 307.5,364.5C 308.473,362.851 309.473,361.184 310.5,359.5C 310.5,358.833 310.833,358.5 311.5,358.5C 312.236,356.771 313.57,355.771 315.5,355.5 Z"/></g>
<g><path style="opacity:0.467" fill="#9cd0e8" d="M 342.5,358.5 C 344.017,358.511 345.184,359.177 346,360.5C 347.766,362.596 349.099,364.929 350,367.5C 353.074,369.071 355.24,371.404 356.5,374.5C 356.167,374.5 355.833,374.5 355.5,374.5C 354.833,374.5 354.5,374.167 354.5,373.5C 353.833,372.167 352.833,371.167 351.5,370.5C 350.504,370.586 349.671,370.252 349,369.5C 347.306,367.76 346.139,365.76 345.5,363.5C 344.752,361.668 343.752,360.001 342.5,358.5 Z"/></g>
<g><path style="opacity:0.863" fill="#4592df" d="M 310.5,359.5 C 309.473,361.184 308.473,362.851 307.5,364.5C 307.167,364.5 306.833,364.5 306.5,364.5C 306.738,361.931 308.071,360.265 310.5,359.5 Z"/></g>
<g><path style="opacity:0.565" fill="#8bbfe6" d="M 433.5,361.5 C 434.167,361.5 434.833,361.5 435.5,361.5C 435.517,363.565 435.85,365.565 436.5,367.5C 434.755,365.967 433.755,363.967 433.5,361.5 Z"/></g>
<g><path style="opacity:0.427" fill="#72afe7" d="M 306.5,364.5 C 306.833,364.5 307.167,364.5 307.5,364.5C 306.483,366.911 304.816,368.578 302.5,369.5C 303.604,367.611 304.937,365.945 306.5,364.5 Z"/></g>
<g><path style="opacity:1" fill="#118ada" d="M 275.5,368.5 C 275.118,373.092 274.118,377.425 272.5,381.5C 272.425,376.808 273.425,372.474 275.5,368.5 Z"/></g>
<g><path style="opacity:0.004" fill="#eff4f3" d="M 351.5,370.5 C 352.833,371.167 353.833,372.167 354.5,373.5C 352.5,373.5 351.5,372.5 351.5,370.5 Z"/></g>
<g><path style="opacity:0.467" fill="#5c9fe0" d="M 302.5,369.5 C 302.5,370.5 302.5,371.5 302.5,372.5C 298.075,375.47 295.075,379.47 293.5,384.5C 292.609,385.11 291.609,385.443 290.5,385.5C 293.607,379.573 297.607,374.239 302.5,369.5 Z"/></g>
<g><path style="opacity:0.137" fill="#c7e1ec" d="M 250.5,363.5 C 250.327,369.26 248.827,374.593 246,379.5C 245.329,380.252 244.496,380.586 243.5,380.5C 245.101,375.074 246.934,369.74 249,364.5C 249.383,363.944 249.883,363.611 250.5,363.5 Z"/></g>
<g><path style="opacity:1" fill="#1279d8" d="M 489.5,501.5 C 491.113,504.132 492.78,506.798 494.5,509.5C 493.998,510.521 493.332,510.688 492.5,510C 491.584,506.915 489.584,505.082 486.5,504.5C 485.477,500.811 483.144,498.477 479.5,497.5C 479.029,496.099 478.362,494.766 477.5,493.5C 473.433,488.764 468.767,484.764 463.5,481.5C 463.013,480.527 462.513,479.527 462,478.5C 458.359,474.807 454.525,471.473 450.5,468.5C 449.737,464.615 447.404,462.281 443.5,461.5C 443.5,459.5 442.5,458.5 440.5,458.5C 439.61,455.776 438.11,453.443 436,451.5C 430.275,446.267 424.442,441.267 418.5,436.5C 417.219,433.553 415.219,431.219 412.5,429.5C 412.167,428.833 411.833,428.167 411.5,427.5C 410.367,424.029 408.033,422.029 404.5,421.5C 404.182,408.496 403.682,395.496 403,382.5C 402.79,380.942 402.29,379.609 401.5,378.5C 401.5,378.167 401.5,377.833 401.5,377.5C 401.335,374.482 401.502,371.482 402,368.5C 407.608,374.294 411.941,380.961 415,388.5C 421.555,396.054 426.888,404.388 431,413.5C 436.23,419.613 441.23,425.946 446,432.5C 448.321,436.207 450.321,440.207 452,444.5C 453,445.167 454,445.833 455,446.5C 455.793,450.295 457.793,453.295 461,455.5C 470.273,471.06 479.773,486.394 489.5,501.5 Z"/></g>
<g><path style="opacity:0.039" fill="#c5d8ed" d="M 302.5,372.5 C 300.449,377.293 297.449,381.293 293.5,384.5C 295.075,379.47 298.075,375.47 302.5,372.5 Z"/></g>
<g><path style="opacity:0.161" fill="#bbddeb" d="M 355.5,374.5 C 355.833,374.5 356.167,374.5 356.5,374.5C 361.194,377.194 364.861,380.861 367.5,385.5C 367.5,385.833 367.5,386.167 367.5,386.5C 363.14,382.806 359.14,378.806 355.5,374.5 Z"/></g>
<g><path style="opacity:0.194" fill="#cae0f0" d="M 435.5,361.5 C 437.081,363.674 438.581,366.007 440,368.5C 443.555,378.344 447.389,388.011 451.5,397.5C 448.479,393.798 445.812,389.798 443.5,385.5C 441.481,379.466 439.148,373.466 436.5,367.5C 435.85,365.565 435.517,363.565 435.5,361.5 Z"/></g>
<g><path style="opacity:0.867" fill="#6abfe5" d="M 367.5,386.5 C 367.5,386.167 367.5,385.833 367.5,385.5C 368.833,385.5 370.167,385.5 371.5,385.5C 371.433,386.959 371.766,388.292 372.5,389.5C 371.833,389.5 371.167,389.5 370.5,389.5C 370.5,387.5 369.5,386.5 367.5,386.5 Z"/></g>
<g><path style="opacity:0.118" fill="#e0eaf4" d="M 367.5,386.5 C 369.5,386.5 370.5,387.5 370.5,389.5C 369.167,388.833 368.167,387.833 367.5,386.5 Z"/></g>
<g><path style="opacity:0.702" fill="#83bbe5" d="M 443.5,385.5 C 445.812,389.798 448.479,393.798 451.5,397.5C 451.5,397.833 451.5,398.167 451.5,398.5C 451.5,399.833 451.5,401.167 451.5,402.5C 448.463,397.082 445.797,391.416 443.5,385.5 Z"/></g>
<g><path style="opacity:0.008" fill="#bbd5ef" d="M 293.5,384.5 C 292.702,386.966 291.369,388.966 289.5,390.5C 289.366,388.708 289.699,387.042 290.5,385.5C 291.609,385.443 292.609,385.11 293.5,384.5 Z"/></g>
<g><path style="opacity:0.467" fill="#5f9fdf" d="M 290.5,385.5 C 289.699,387.042 289.366,388.708 289.5,390.5C 287.973,390.427 286.973,391.094 286.5,392.5C 285.833,392.833 285.167,393.167 284.5,393.5C 286.186,390.496 288.186,387.83 290.5,385.5 Z"/></g>
<g><path style="opacity:0.004" fill="#cfe5f1" d="M 370.5,389.5 C 371.167,389.5 371.833,389.5 372.5,389.5C 373.11,390.391 373.443,391.391 373.5,392.5C 371.856,392.19 370.856,391.19 370.5,389.5 Z"/></g>
<g><path style="opacity:0.004" fill="#edf2f1" d="M 289.5,390.5 C 289.262,392.404 288.262,393.738 286.5,394.5C 286.5,393.833 286.5,393.167 286.5,392.5C 286.973,391.094 287.973,390.427 289.5,390.5 Z"/></g>
<g><path style="opacity:1" fill="#1186da" d="M 269.5,391.5 C 268.277,398.822 266.277,405.822 263.5,412.5C 264.314,405.069 266.314,398.069 269.5,391.5 Z"/></g>
<g><path style="opacity:0.051" fill="#d2e5ec" d="M 373.5,392.5 C 375.71,392.894 377.043,394.227 377.5,396.5C 375.29,396.106 373.957,394.773 373.5,392.5 Z"/></g>
<g><path style="opacity:0.565" fill="#579bde" d="M 283.5,394.5 C 283.715,396.179 283.048,397.179 281.5,397.5C 281.427,395.973 282.094,394.973 283.5,394.5 Z"/></g>
<g><path style="opacity:1" fill="#18a4df" d="M 275.5,366.5 C 275.5,367.167 275.5,367.833 275.5,368.5C 273.425,372.474 272.425,376.808 272.5,381.5C 270.288,384.321 269.288,387.655 269.5,391.5C 266.314,398.069 264.314,405.069 263.5,412.5C 262.662,412.842 262.328,413.508 262.5,414.5C 261.134,417.089 260.134,419.922 259.5,423C 259.836,424.03 260.503,424.53 261.5,424.5C 261.5,424.833 261.5,425.167 261.5,425.5C 259.952,425.821 259.285,426.821 259.5,428.5C 268.149,427.797 276.815,427.464 285.5,427.5C 322.427,427.013 359.26,425.346 396,422.5C 397.986,422.569 399.486,423.235 400.5,424.5C 399.662,424.842 399.328,425.508 399.5,426.5C 397.833,426.5 396.167,426.5 394.5,426.5C 394.611,425.883 394.944,425.383 395.5,425C 391.833,424.333 388.167,424.333 384.5,425C 379.435,426.503 374.435,428.003 369.5,429.5C 365.443,429.848 361.443,430.514 357.5,431.5C 350.479,431.702 343.812,433.035 337.5,435.5C 334.246,435.207 331.246,435.874 328.5,437.5C 321.574,438.196 314.907,439.53 308.5,441.5C 304.633,441.242 300.966,441.908 297.5,443.5C 286.152,444.758 275.152,447.091 264.5,450.5C 251.203,453.049 237.87,455.383 224.5,457.5C 226.875,450.416 230.542,444.083 235.5,438.5C 240.852,427.475 247.019,416.809 254,406.5C 254.561,403.721 255.394,401.054 256.5,398.5C 261.224,389.2 266.058,379.866 271,370.5C 272.371,368.959 273.871,367.625 275.5,366.5 Z"/></g>
<g><path style="opacity:0.204" fill="#bfd5e9" d="M 286.5,392.5 C 286.5,393.167 286.5,393.833 286.5,394.5C 284.004,399.588 280.67,403.922 276.5,407.5C 278.12,404.193 279.787,400.86 281.5,397.5C 283.048,397.179 283.715,396.179 283.5,394.5C 284.167,394.5 284.5,394.167 284.5,393.5C 285.167,393.167 285.833,392.833 286.5,392.5 Z"/></g>
<g><path style="opacity:0.31" fill="#b8daeb" d="M 377.5,396.5 C 379.117,397.038 380.784,397.371 382.5,397.5C 382.629,399.216 382.962,400.883 383.5,402.5C 381.167,400.833 379.167,398.833 377.5,396.5 Z"/></g>
<g><path style="opacity:0.588" fill="#599ddf" d="M 281.5,397.5 C 279.787,400.86 278.12,404.193 276.5,407.5C 275.833,407.5 275.167,407.5 274.5,407.5C 276.062,403.608 278.395,400.275 281.5,397.5 Z"/></g>
<g><path style="opacity:0.208" fill="#bce0ef" d="M 383.5,402.5 C 387.167,403.5 389.5,405.833 390.5,409.5C 389.761,409.631 389.094,409.464 388.5,409C 386.797,406.828 385.13,404.661 383.5,402.5 Z"/></g>
<g><path style="opacity:1" fill="#3db1e3" d="M 256.5,398.5 C 255.394,401.054 254.561,403.721 254,406.5C 247.019,416.809 240.852,427.475 235.5,438.5C 235.343,437.127 235.51,435.793 236,434.5C 238.527,430.779 240.527,426.779 242,422.5C 246.697,414.329 251.53,406.329 256.5,398.5 Z"/></g>
<g><path style="opacity:1" fill="#1e94dd" d="M 401.5,378.5 C 402.29,379.609 402.79,380.942 403,382.5C 403.682,395.496 404.182,408.496 404.5,421.5C 408.033,422.029 410.367,424.029 411.5,427.5C 409.427,426.7 407.76,425.367 406.5,423.5C 405.791,422.596 404.791,422.263 403.5,422.5C 403.5,420.833 403.5,419.167 403.5,417.5C 402.568,404.542 401.901,391.542 401.5,378.5 Z"/></g>
<g><path style="opacity:0.557" fill="#5b9ddd" d="M 274.5,407.5 C 273.974,409.23 272.974,410.564 271.5,411.5C 271.554,409.368 272.554,408.035 274.5,407.5 Z"/></g>
<g><path style="opacity:0.047" fill="#d6e7ef" d="M 390.5,409.5 C 392.5,409.5 393.5,410.5 393.5,412.5C 391.5,412.5 390.5,411.5 390.5,409.5 Z"/></g>
<g><path style="opacity:0.067" fill="#d2e0eb" d="M 274.5,407.5 C 275.167,407.5 275.833,407.5 276.5,407.5C 275.647,411.02 273.647,413.687 270.5,415.5C 270.433,414.041 270.766,412.708 271.5,411.5C 272.974,410.564 273.974,409.23 274.5,407.5 Z"/></g>
<g><path style="opacity:0.004" fill="#e2ecef" d="M 393.5,412.5 C 395.5,412.5 396.5,413.5 396.5,415.5C 394.856,415.19 393.856,414.19 393.5,412.5 Z"/></g>
<g><path style="opacity:0.278" fill="#d2e9f3" d="M 243.5,380.5 C 243.662,382.527 243.495,384.527 243,386.5C 240.135,394.631 236.969,402.631 233.5,410.5C 232.121,413.307 230.454,415.974 228.5,418.5C 232.812,406.136 237.312,393.803 242,381.5C 242.383,380.944 242.883,380.611 243.5,380.5 Z"/></g>
<g><path style="opacity:0.384" fill="#74abe2" d="M 271.5,411.5 C 270.766,412.708 270.433,414.041 270.5,415.5C 270.5,416.167 270.167,416.5 269.5,416.5C 267.14,417.865 265.473,419.865 264.5,422.5C 263.596,423.209 263.263,424.209 263.5,425.5C 262.833,425.5 262.167,425.5 261.5,425.5C 261.5,425.167 261.5,424.833 261.5,424.5C 262.11,423.609 262.443,422.609 262.5,421.5C 265.049,417.716 268.049,414.383 271.5,411.5 Z"/></g>
<g><path style="opacity:0.031" fill="#d7e4f0" d="M 269.5,416.5 C 269.719,417.675 269.386,418.675 268.5,419.5C 267.358,420.826 266.024,421.826 264.5,422.5C 265.473,419.865 267.14,417.865 269.5,416.5 Z"/></g>
<g><path style="opacity:0.004" fill="#f7f4f0" d="M 355.5,420.5 C 355.5,421.167 355.5,421.833 355.5,422.5C 350.833,422.5 346.167,422.5 341.5,422.5C 345.715,420.564 350.381,419.897 355.5,420.5 Z"/></g>
<g><path style="opacity:0.151" fill="#d7e9f1" d="M 388.5,420.5 C 388.5,420.833 388.5,421.167 388.5,421.5C 377.531,422.407 366.531,422.74 355.5,422.5C 355.5,421.833 355.5,421.167 355.5,420.5C 366.701,420.367 377.701,420.367 388.5,420.5 Z"/></g>
<g><path style="opacity:0.067" fill="#aad7f0" d="M 396.5,415.5 C 398.167,416.167 399.833,416.833 401.5,417.5C 402.234,418.708 402.567,420.041 402.5,421.5C 397.833,421.5 393.167,421.5 388.5,421.5C 388.5,421.167 388.5,420.833 388.5,420.5C 392.846,420.666 397.179,420.499 401.5,420C 399.014,419.344 397.347,417.844 396.5,415.5 Z"/></g>
<g><path style="opacity:0.969" fill="#1c89db" d="M 262.5,414.5 C 261.897,417.041 261.897,419.374 262.5,421.5C 262.443,422.609 262.11,423.609 261.5,424.5C 260.503,424.53 259.836,424.03 259.5,423C 260.134,419.922 261.134,417.089 262.5,414.5 Z"/></g>
<g><path style="opacity:0.643" fill="#93cfe9" d="M 233.5,410.5 C 232.699,417.259 230.366,423.259 226.5,428.5C 227.167,425.167 227.833,421.833 228.5,418.5C 230.454,415.974 232.121,413.307 233.5,410.5 Z"/></g>
<g><path style="opacity:0.059" fill="#f0f4f0" d="M 264.5,422.5 C 265.815,423.895 265.481,424.895 263.5,425.5C 263.263,424.209 263.596,423.209 264.5,422.5 Z"/></g>
<g><path style="opacity:0.094" fill="#a4d8ed" d="M 341.5,422.5 C 346.167,422.5 350.833,422.5 355.5,422.5C 349.842,423.045 344.175,423.879 338.5,425C 328.839,425.5 319.172,425.666 309.5,425.5C 309.5,424.833 309.5,424.167 309.5,423.5C 320.142,423.149 330.808,422.816 341.5,422.5 Z"/></g>
<g><path style="opacity:0.094" fill="#cbdeee" d="M 406.5,423.5 C 407.76,425.367 409.427,426.7 411.5,427.5C 411.833,428.167 412.167,428.833 412.5,429.5C 412.5,430.167 412.5,430.833 412.5,431.5C 409.798,429.391 406.964,427.391 404,425.5C 402.467,425.773 400.967,426.106 399.5,426.5C 399.328,425.508 399.662,424.842 400.5,424.5C 402.379,423.659 404.379,423.325 406.5,423.5 Z"/></g>
<g><path style="opacity:0.078" fill="#d4e5ec" d="M 228.5,418.5 C 227.833,421.833 227.167,425.167 226.5,428.5C 225.833,428.5 225.167,428.5 224.5,428.5C 224.933,425.834 225.433,423.168 226,420.5C 226.708,419.619 227.542,418.953 228.5,418.5 Z"/></g>
<g><path style="opacity:0.116" fill="#e8f3f7" d="M 309.5,423.5 C 309.5,424.167 309.5,424.833 309.5,425.5C 301.5,425.5 293.5,425.5 285.5,425.5C 293.097,423.533 301.097,422.866 309.5,423.5 Z"/></g>
<g><path style="opacity:0.787" fill="#52b9e5" d="M 401.5,417.5 C 402.167,417.5 402.833,417.5 403.5,417.5C 403.5,419.167 403.5,420.833 403.5,422.5C 404.791,422.263 405.791,422.596 406.5,423.5C 404.379,423.325 402.379,423.659 400.5,424.5C 399.486,423.235 397.986,422.569 396,422.5C 359.26,425.346 322.427,427.013 285.5,427.5C 285.5,426.833 285.5,426.167 285.5,425.5C 293.5,425.5 301.5,425.5 309.5,425.5C 319.172,425.666 328.839,425.5 338.5,425C 344.175,423.879 349.842,423.045 355.5,422.5C 366.531,422.74 377.531,422.407 388.5,421.5C 393.167,421.5 397.833,421.5 402.5,421.5C 402.567,420.041 402.234,418.708 401.5,417.5 Z"/></g>
<g><path style="opacity:0.259" fill="#b1ddf0" d="M 261.5,425.5 C 262.167,425.5 262.833,425.5 263.5,425.5C 270.623,425.672 277.957,425.672 285.5,425.5C 285.5,426.167 285.5,426.833 285.5,427.5C 276.815,427.464 268.149,427.797 259.5,428.5C 259.285,426.821 259.952,425.821 261.5,425.5 Z"/></g>
<g><path style="opacity:0.999" fill="#187fd9" d="M 394.5,426.5 C 394.158,427.338 393.492,427.672 392.5,427.5C 389.474,428.174 386.474,429.007 383.5,430C 382.177,430.816 381.511,431.983 381.5,433.5C 380.833,433.5 380.167,433.5 379.5,433.5C 378.833,433.5 378.167,433.5 377.5,433.5C 378.398,432.842 379.398,432.176 380.5,431.5C 380.291,430.914 379.957,430.414 379.5,430C 376.183,429.502 372.85,429.335 369.5,429.5C 374.435,428.003 379.435,426.503 384.5,425C 388.167,424.333 391.833,424.333 395.5,425C 394.944,425.383 394.611,425.883 394.5,426.5 Z"/></g>
<g><path style="opacity:0.125" fill="#c2dbf3" d="M 394.5,426.5 C 396.167,426.5 397.833,426.5 399.5,426.5C 397.383,428.655 394.716,429.655 391.5,429.5C 391.833,428.833 392.167,428.167 392.5,427.5C 393.492,427.672 394.158,427.338 394.5,426.5 Z"/></g>
<g><path style="opacity:0.22" fill="#cde3f2" d="M 451.5,398.5 C 452.586,398.62 453.253,399.287 453.5,400.5C 458.178,411.944 462.845,423.277 467.5,434.5C 466,433.375 464.667,432.041 463.5,430.5C 459.483,421.138 455.483,411.804 451.5,402.5C 451.5,401.167 451.5,399.833 451.5,398.5 Z"/></g>
<g><path style="opacity:1" fill="#1177d8" d="M 369.5,429.5 C 372.85,429.335 376.183,429.502 379.5,430C 379.957,430.414 380.291,430.914 380.5,431.5C 379.398,432.176 378.398,432.842 377.5,433.5C 376.048,434.302 374.382,434.802 372.5,435C 371.748,435.671 371.414,436.504 371.5,437.5C 371.167,437.5 370.833,437.5 370.5,437.5C 367.277,438.643 364.111,439.977 361,441.5C 359.97,441.836 359.47,442.503 359.5,443.5C 359.167,443.5 358.833,443.5 358.5,443.5C 355.852,444.162 353.185,444.829 350.5,445.5C 349.287,445.747 348.62,446.414 348.5,447.5C 347.5,447.833 346.833,448.5 346.5,449.5C 345.833,449.5 345.167,449.5 344.5,449.5C 341.053,450.083 338.053,451.416 335.5,453.5C 329.133,454.529 323.466,456.862 318.5,460.5C 315.755,462.175 313.088,463.842 310.5,465.5C 309.167,465.833 307.833,466.167 306.5,466.5C 302.519,468.201 298.852,470.201 295.5,472.5C 294.833,472.5 294.167,472.5 293.5,472.5C 289.296,473.746 285.63,475.746 282.5,478.5C 280.447,478.402 278.78,479.069 277.5,480.5C 270.688,481.434 264.688,484.1 259.5,488.5C 257.272,488.777 255.605,489.777 254.5,491.5C 250.687,491.938 247.354,493.271 244.5,495.5C 241.284,495.345 238.617,496.345 236.5,498.5C 234.326,498.75 232.659,499.75 231.5,501.5C 228.895,501.621 226.895,502.621 225.5,504.5C 224.041,504.433 222.708,504.766 221.5,505.5C 219.518,505.995 217.518,506.495 215.5,507C 210.714,509.049 206.38,511.549 202.5,514.5C 201.508,514.328 200.842,514.662 200.5,515.5C 198.302,515.12 196.635,515.787 195.5,517.5C 195.5,518.167 195.167,518.5 194.5,518.5C 193.5,518.5 192.5,518.5 191.5,518.5C 191.4,515.892 192.067,513.558 193.5,511.5C 197.091,508.655 199.424,504.988 200.5,500.5C 200.557,499.391 200.89,498.391 201.5,497.5C 205.539,490.346 209.372,483.013 213,475.5C 213.708,474.619 214.542,473.953 215.5,473.5C 218.923,468.854 222.256,464.02 225.5,459C 238.911,457.218 251.911,454.385 264.5,450.5C 276.037,449.859 287.037,447.526 297.5,443.5C 300.966,441.908 304.633,441.242 308.5,441.5C 314.858,440.914 321.191,440.08 327.5,439C 328.056,438.617 328.389,438.117 328.5,437.5C 331.246,435.874 334.246,435.207 337.5,435.5C 344.578,435.551 351.245,434.218 357.5,431.5C 361.443,430.514 365.443,429.848 369.5,429.5 Z"/></g>
<g><path style="opacity:0.922" fill="#5a9cde" d="M 392.5,427.5 C 392.167,428.167 391.833,428.833 391.5,429.5C 389.011,429.241 387.344,430.241 386.5,432.5C 384.708,432.366 383.042,432.699 381.5,433.5C 381.511,431.983 382.177,430.816 383.5,430C 386.474,429.007 389.474,428.174 392.5,427.5 Z"/></g>
<g><path style="opacity:0.004" fill="#e0ecf6" d="M 391.5,429.5 C 390.7,431.741 389.034,432.741 386.5,432.5C 387.344,430.241 389.011,429.241 391.5,429.5 Z"/></g>
<g><path style="opacity:0.188" fill="#8dbae5" d="M 412.5,429.5 C 415.219,431.219 417.219,433.553 418.5,436.5C 417.833,436.5 417.167,436.5 416.5,436.5C 416.5,436.167 416.5,435.833 416.5,435.5C 415.5,433.833 414.167,432.5 412.5,431.5C 412.5,430.833 412.5,430.167 412.5,429.5 Z"/></g>
<g><path style="opacity:0.067" fill="#dce9ee" d="M 224.5,428.5 C 224.614,431.216 223.614,433.216 221.5,434.5C 221.621,431.895 222.621,429.895 224.5,428.5 Z"/></g>
<g><path style="opacity:1" fill="#1189db" d="M 357.5,431.5 C 351.245,434.218 344.578,435.551 337.5,435.5C 343.812,433.035 350.479,431.702 357.5,431.5 Z"/></g>
<g><path style="opacity:0.043" fill="#d4e1ec" d="M 386.5,432.5 C 385.992,434.233 385.159,434.566 384,433.5C 382.951,435.107 381.451,435.773 379.5,435.5C 379.5,434.833 379.5,434.167 379.5,433.5C 380.167,433.5 380.833,433.5 381.5,433.5C 383.042,432.699 384.708,432.366 386.5,432.5 Z"/></g>
<g><path style="opacity:0.008" fill="#e5ebf2" d="M 412.5,431.5 C 414.167,432.5 415.5,433.833 416.5,435.5C 414.167,435.167 412.833,433.833 412.5,431.5 Z"/></g>
<g><path style="opacity:0.816" fill="#91c3ea" d="M 463.5,430.5 C 464.667,432.041 466,433.375 467.5,434.5C 468.434,435.568 468.768,436.901 468.5,438.5C 468.993,440.806 469.326,443.139 469.5,445.5C 467.604,441.923 465.771,438.256 464,434.5C 463.51,433.207 463.343,431.873 463.5,430.5 Z"/></g>
<g><path style="opacity:0.741" fill="#5da0e2" d="M 377.5,433.5 C 378.167,433.5 378.833,433.5 379.5,433.5C 379.5,434.167 379.5,434.833 379.5,435.5C 376.733,435.858 374.067,436.525 371.5,437.5C 371.414,436.504 371.748,435.671 372.5,435C 374.382,434.802 376.048,434.302 377.5,433.5 Z"/></g>
<g><path style="opacity:0.031" fill="#d6e6f6" d="M 379.5,435.5 C 377.176,438.159 374.176,439.492 370.5,439.5C 370.5,438.833 370.5,438.167 370.5,437.5C 370.833,437.5 371.167,437.5 371.5,437.5C 374.067,436.525 376.733,435.858 379.5,435.5 Z"/></g>
<g><path style="opacity:0.745" fill="#61a2e0" d="M 418.5,436.5 C 424.442,441.267 430.275,446.267 436,451.5C 438.11,453.443 439.61,455.776 440.5,458.5C 439.078,457.075 437.411,456.075 435.5,455.5C 430.226,448.889 424.56,442.555 418.5,436.5 Z"/></g>
<g><path style="opacity:1" fill="#1187da" d="M 328.5,437.5 C 328.389,438.117 328.056,438.617 327.5,439C 321.191,440.08 314.858,440.914 308.5,441.5C 314.907,439.53 321.574,438.196 328.5,437.5 Z"/></g>
<g><path style="opacity:0.161" fill="#83b3e2" d="M 370.5,437.5 C 370.5,438.167 370.5,438.833 370.5,439.5C 368.62,439.229 367.287,439.896 366.5,441.5C 366.158,442.338 365.492,442.672 364.5,442.5C 362.708,442.366 361.042,442.699 359.5,443.5C 359.47,442.503 359.97,441.836 361,441.5C 364.111,439.977 367.277,438.643 370.5,437.5 Z"/></g>
<g><path style="opacity:0.024" fill="#e4eced" d="M 370.5,439.5 C 369.817,441.176 368.483,441.843 366.5,441.5C 367.287,439.896 368.62,439.229 370.5,439.5 Z"/></g>
<g><path style="opacity:0.086" fill="#c8e0f1" d="M 468.5,438.5 C 470.451,440.48 471.951,442.813 473,445.5C 480.973,464.954 489.139,484.287 497.5,503.5C 496.761,503.631 496.094,503.464 495.5,503C 494.947,501.122 493.947,499.622 492.5,498.5C 486.472,484.008 480.639,469.341 475,454.5C 472.734,451.687 470.9,448.687 469.5,445.5C 469.326,443.139 468.993,440.806 468.5,438.5 Z"/></g>
<g><path style="opacity:0.106" fill="#def0f9" d="M 221.5,436.5 C 221.167,438.5 220.833,440.5 220.5,442.5C 219.833,442.833 219.167,443.167 218.5,443.5C 218.179,440.423 219.179,438.09 221.5,436.5 Z"/></g>
<g><path style="opacity:0.012" fill="#cbdceb" d="M 364.5,442.5 C 362.794,444.536 360.461,445.536 357.5,445.5C 357.833,444.833 358.167,444.167 358.5,443.5C 358.833,443.5 359.167,443.5 359.5,443.5C 361.042,442.699 362.708,442.366 364.5,442.5 Z"/></g>
<g><path style="opacity:0.698" fill="#579de2" d="M 358.5,443.5 C 358.167,444.167 357.833,444.833 357.5,445.5C 355.435,445.517 353.435,445.85 351.5,446.5C 350.391,446.557 349.391,446.89 348.5,447.5C 348.62,446.414 349.287,445.747 350.5,445.5C 353.185,444.829 355.852,444.162 358.5,443.5 Z"/></g>
<g><path style="opacity:1" fill="#128bdb" d="M 297.5,443.5 C 287.037,447.526 276.037,449.859 264.5,450.5C 275.152,447.091 286.152,444.758 297.5,443.5 Z"/></g>
<g><path style="opacity:0.055" fill="#d4e6f7" d="M 357.5,445.5 C 356.089,447.539 354.089,448.539 351.5,448.5C 351.5,447.833 351.5,447.167 351.5,446.5C 353.435,445.85 355.435,445.517 357.5,445.5 Z"/></g>
<g><path style="opacity:0.065" fill="#d2e2f0" d="M 416.5,436.5 C 417.167,436.5 417.833,436.5 418.5,436.5C 424.56,442.555 430.226,448.889 435.5,455.5C 428.86,449.527 422.527,443.194 416.5,436.5 Z"/></g>
<g><path style="opacity:0.129" fill="#e4f1f6" d="M 218.5,443.5 C 219.084,446.285 218.084,447.952 215.5,448.5C 216.11,446.566 217.11,444.899 218.5,443.5 Z"/></g>
<g><path style="opacity:0.149" fill="#8fbeec" d="M 351.5,446.5 C 351.5,447.167 351.5,447.833 351.5,448.5C 351.167,448.5 350.833,448.5 350.5,448.5C 349.167,448.833 347.833,449.167 346.5,449.5C 346.833,448.5 347.5,447.833 348.5,447.5C 349.391,446.89 350.391,446.557 351.5,446.5 Z"/></g>
<g><path style="opacity:0.631" fill="#a0d6ed" d="M 220.5,442.5 C 218.645,448.271 216.645,453.938 214.5,459.5C 214.704,456.482 215.037,453.482 215.5,450.5C 215.5,449.833 215.5,449.167 215.5,448.5C 218.084,447.952 219.084,446.285 218.5,443.5C 219.167,443.167 219.833,442.833 220.5,442.5 Z"/></g>
<g><path style="opacity:0.075" fill="#d3e4f4" d="M 350.5,448.5 C 348.388,450.771 345.721,452.104 342.5,452.5C 343.167,451.5 343.833,450.5 344.5,449.5C 345.167,449.5 345.833,449.5 346.5,449.5C 347.833,449.167 349.167,448.833 350.5,448.5 Z"/></g>
<g><path style="opacity:0.529" fill="#6aa6e5" d="M 344.5,449.5 C 343.833,450.5 343.167,451.5 342.5,452.5C 340.097,452.448 337.764,452.781 335.5,453.5C 338.053,451.416 341.053,450.083 344.5,449.5 Z"/></g>
<g><path style="opacity:0.051" fill="#c4dbf3" d="M 342.5,452.5 C 340.68,454.448 338.346,455.448 335.5,455.5C 335.5,454.833 335.5,454.167 335.5,453.5C 337.764,452.781 340.097,452.448 342.5,452.5 Z"/></g>
<g><path style="opacity:1" fill="#1887db" d="M 264.5,450.5 C 251.911,454.385 238.911,457.218 225.5,459C 222.256,464.02 218.923,468.854 215.5,473.5C 217.293,468.581 219.626,463.914 222.5,459.5C 223.5,459.167 224.167,458.5 224.5,457.5C 237.87,455.383 251.203,453.049 264.5,450.5 Z"/></g>
<g><path style="opacity:0.902" fill="#4290de" d="M 335.5,453.5 C 335.5,454.167 335.5,454.833 335.5,455.5C 330.993,455.447 326.993,456.78 323.5,459.5C 321.883,460.038 320.216,460.371 318.5,460.5C 323.466,456.862 329.133,454.529 335.5,453.5 Z"/></g>
<g><path style="opacity:0.294" fill="#d5eaf4" d="M 215.5,450.5 C 215.037,453.482 214.704,456.482 214.5,459.5C 212.058,461.121 210.725,463.454 210.5,466.5C 210.5,466.833 210.5,467.167 210.5,467.5C 208.933,468.681 208.099,470.347 208,472.5C 207.329,473.252 206.496,473.586 205.5,473.5C 208.115,465.294 211.449,457.627 215.5,450.5 Z"/></g>
<g><path style="opacity:0.8" fill="#60a2df" d="M 440.5,458.5 C 442.5,458.5 443.5,459.5 443.5,461.5C 442.833,461.5 442.167,461.5 441.5,461.5C 441.443,460.391 441.11,459.391 440.5,458.5 Z"/></g>
<g><path style="opacity:0.129" fill="#c5daf0" d="M 335.5,455.5 C 329.031,459.566 322.031,462.9 314.5,465.5C 317.093,462.787 320.093,460.787 323.5,459.5C 326.993,456.78 330.993,455.447 335.5,455.5 Z"/></g>
<g><path style="opacity:0.051" fill="#cdddea" d="M 435.5,455.5 C 437.411,456.075 439.078,457.075 440.5,458.5C 441.11,459.391 441.443,460.391 441.5,461.5C 439.215,459.882 437.215,457.882 435.5,455.5 Z"/></g>
<g><path style="opacity:1" fill="#4fa3e1" d="M 222.5,459.5 C 219.626,463.914 217.293,468.581 215.5,473.5C 214.542,473.953 213.708,474.619 213,475.5C 209.372,483.013 205.539,490.346 201.5,497.5C 204.237,487.531 207.237,477.531 210.5,467.5C 210.5,467.167 210.5,466.833 210.5,466.5C 212.052,464.965 213.385,463.131 214.5,461C 217.168,460.433 219.834,459.933 222.5,459.5 Z"/></g>
<g><path style="opacity:0.176" fill="#cbddeb" d="M 441.5,461.5 C 442.167,461.5 442.833,461.5 443.5,461.5C 444.6,462.605 445.267,463.938 445.5,465.5C 443.833,464.5 442.5,463.167 441.5,461.5 Z"/></g>
<g><path style="opacity:0.969" fill="#5198de" d="M 443.5,461.5 C 447.404,462.281 449.737,464.615 450.5,468.5C 449.833,468.5 449.167,468.5 448.5,468.5C 448.5,466.5 447.5,465.5 445.5,465.5C 445.267,463.938 444.6,462.605 443.5,461.5 Z"/></g>
<g><path style="opacity:0.435" fill="#6ea8e0" d="M 323.5,459.5 C 320.093,460.787 317.093,462.787 314.5,465.5C 313.167,465.5 311.833,465.5 310.5,465.5C 313.088,463.842 315.755,462.175 318.5,460.5C 320.216,460.371 321.883,460.038 323.5,459.5 Z"/></g>
<g><path style="opacity:0.114" fill="#c3d9ed" d="M 310.5,465.5 C 311.833,465.5 313.167,465.5 314.5,465.5C 310.622,468.351 306.288,470.351 301.5,471.5C 302.796,469.421 304.462,467.754 306.5,466.5C 307.833,466.167 309.167,465.833 310.5,465.5 Z"/></g>
<g><path style="opacity:0.031" fill="#d6e7f7" d="M 445.5,465.5 C 447.5,465.5 448.5,466.5 448.5,468.5C 446.81,468.144 445.81,467.144 445.5,465.5 Z"/></g>
<g><path style="opacity:0.549" fill="#69a5e0" d="M 306.5,466.5 C 304.462,467.754 302.796,469.421 301.5,471.5C 299.379,471.325 297.379,471.659 295.5,472.5C 298.852,470.201 302.519,468.201 306.5,466.5 Z"/></g>
<g><path style="opacity:0.216" fill="#c6d9ed" d="M 448.5,468.5 C 449.167,468.5 449.833,468.5 450.5,468.5C 452.252,470.246 453.585,472.246 454.5,474.5C 452.077,473.05 450.077,471.05 448.5,468.5 Z"/></g>
<g><path style="opacity:0.016" fill="#c9ddef" d="M 301.5,471.5 C 297.771,473.657 293.771,475.657 289.5,477.5C 290.3,475.427 291.633,473.76 293.5,472.5C 294.167,472.5 294.833,472.5 295.5,472.5C 297.379,471.659 299.379,471.325 301.5,471.5 Z"/></g>
<g><path style="opacity:0.765" fill="#579cdd" d="M 450.5,468.5 C 454.525,471.473 458.359,474.807 462,478.5C 462.513,479.527 463.013,480.527 463.5,481.5C 462.833,481.5 462.167,481.5 461.5,481.5C 460.189,478.189 457.855,475.855 454.5,474.5C 453.585,472.246 452.252,470.246 450.5,468.5 Z"/></g>
<g><path style="opacity:0.275" fill="#77aee7" d="M 293.5,472.5 C 291.633,473.76 290.3,475.427 289.5,477.5C 288.833,477.5 288.167,477.5 287.5,477.5C 286.041,477.433 284.708,477.766 283.5,478.5C 283.167,478.5 282.833,478.5 282.5,478.5C 285.63,475.746 289.296,473.746 293.5,472.5 Z"/></g>
<g><path style="opacity:0.059" fill="#c3d8ea" d="M 454.5,474.5 C 457.855,475.855 460.189,478.189 461.5,481.5C 460.761,481.631 460.094,481.464 459.5,481C 457.712,478.816 456.046,476.649 454.5,474.5 Z"/></g>
<g><path style="opacity:0.012" fill="#e6ecee" d="M 205.5,474.5 C 205.483,476.565 205.15,478.565 204.5,480.5C 203.833,480.5 203.167,480.5 202.5,480.5C 202.992,478.181 203.992,476.181 205.5,474.5 Z"/></g>
<g><path style="opacity:0.008" fill="#f6fbfe" d="M 287.5,477.5 C 286.205,478.488 284.872,479.488 283.5,480.5C 283.5,479.833 283.5,479.167 283.5,478.5C 284.708,477.766 286.041,477.433 287.5,477.5 Z"/></g>
<g><path style="opacity:0.031" fill="#b2d3f2" d="M 282.5,478.5 C 282.833,478.5 283.167,478.5 283.5,478.5C 283.5,479.167 283.5,479.833 283.5,480.5C 279.796,482.184 276.129,484.017 272.5,486C 270.134,486.44 267.801,486.94 265.5,487.5C 265.369,486.624 265.702,485.957 266.5,485.5C 270.016,483.247 273.683,481.58 277.5,480.5C 278.78,479.069 280.447,478.402 282.5,478.5 Z"/></g>
<g><path style="opacity:0.031" fill="#d2e2f2" d="M 461.5,481.5 C 462.167,481.5 462.833,481.5 463.5,481.5C 465.252,483.246 466.585,485.246 467.5,487.5C 465.118,485.785 463.118,483.785 461.5,481.5 Z"/></g>
<g><path style="opacity:0.698" fill="#4c97de" d="M 277.5,480.5 C 273.683,481.58 270.016,483.247 266.5,485.5C 265.702,485.957 265.369,486.624 265.5,487.5C 263.708,487.366 262.042,487.699 260.5,488.5C 260.167,488.5 259.833,488.5 259.5,488.5C 264.688,484.1 270.688,481.434 277.5,480.5 Z"/></g>
<g><path style="opacity:0.063" fill="#d9e5ee" d="M 265.5,487.5 C 264.101,488.89 262.434,489.89 260.5,490.5C 260.5,489.833 260.5,489.167 260.5,488.5C 262.042,487.699 263.708,487.366 265.5,487.5 Z"/></g>
<g><path style="opacity:0.345" fill="#82b4e2" d="M 259.5,488.5 C 259.833,488.5 260.167,488.5 260.5,488.5C 260.5,489.167 260.5,489.833 260.5,490.5C 258.379,490.325 256.379,490.659 254.5,491.5C 255.605,489.777 257.272,488.777 259.5,488.5 Z"/></g>
<g><path style="opacity:0.063" fill="#c8dbed" d="M 467.5,487.5 C 468.5,487.5 469.5,487.5 470.5,487.5C 470.351,488.552 470.517,489.552 471,490.5C 473.071,491.103 474.238,492.436 474.5,494.5C 471.189,493.189 468.855,490.855 467.5,487.5 Z"/></g>
<g><path style="opacity:0.882" fill="#5197dd" d="M 463.5,481.5 C 468.767,484.764 473.433,488.764 477.5,493.5C 478.362,494.766 479.029,496.099 479.5,497.5C 478.833,497.5 478.167,497.5 477.5,497.5C 477.5,495.5 476.5,494.5 474.5,494.5C 474.238,492.436 473.071,491.103 471,490.5C 470.517,489.552 470.351,488.552 470.5,487.5C 469.5,487.5 468.5,487.5 467.5,487.5C 466.585,485.246 465.252,483.246 463.5,481.5 Z"/></g>
<g><path style="opacity:0.008" fill="#f1f1f1" d="M 260.5,490.5 C 258.412,491.201 256.412,492.201 254.5,493.5C 254.5,492.833 254.5,492.167 254.5,491.5C 256.379,490.659 258.379,490.325 260.5,490.5 Z"/></g>
<g><path style="opacity:0.184" fill="#87b6e5" d="M 254.5,491.5 C 254.5,492.167 254.5,492.833 254.5,493.5C 253.833,493.5 253.167,493.5 252.5,493.5C 249.779,493.963 247.112,494.629 244.5,495.5C 247.354,493.271 250.687,491.938 254.5,491.5 Z"/></g>
<g><path style="opacity:0.957" fill="#6bafe4" d="M 210.5,467.5 C 207.237,477.531 204.237,487.531 201.5,497.5C 200.89,498.391 200.557,499.391 200.5,500.5C 198.667,502.67 196.667,504.67 194.5,506.5C 195.15,504.565 195.483,502.565 195.5,500.5C 196.75,500.423 197.583,499.756 198,498.5C 200.17,492.475 202.337,486.475 204.5,480.5C 205.15,478.565 205.483,476.565 205.5,474.5C 205.5,474.167 205.5,473.833 205.5,473.5C 206.496,473.586 207.329,473.252 208,472.5C 208.099,470.347 208.933,468.681 210.5,467.5 Z"/></g>
<g><path style="opacity:0.008" fill="#d8e7f3" d="M 252.5,493.5 C 250.388,495.771 247.721,497.104 244.5,497.5C 244.5,496.833 244.5,496.167 244.5,495.5C 247.112,494.629 249.779,493.963 252.5,493.5 Z"/></g>
<g><path style="opacity:0.039" fill="#cfdfec" d="M 474.5,494.5 C 476.5,494.5 477.5,495.5 477.5,497.5C 475.81,497.144 474.81,496.144 474.5,494.5 Z"/></g>
<g><path style="opacity:0.549" fill="#5e9fe0" d="M 244.5,495.5 C 244.5,496.167 244.5,496.833 244.5,497.5C 241.763,497.401 239.096,497.735 236.5,498.5C 238.617,496.345 241.284,495.345 244.5,495.5 Z"/></g>
<g><path style="opacity:0.122" fill="#c4dcef" d="M 202.5,480.5 C 203.167,480.5 203.833,480.5 204.5,480.5C 202.337,486.475 200.17,492.475 198,498.5C 197.583,499.756 196.75,500.423 195.5,500.5C 197.443,493.67 199.776,487.003 202.5,480.5 Z"/></g>
<g><path style="opacity:0.016" fill="#bcd4ea" d="M 244.5,497.5 C 240.366,499.731 236.032,501.731 231.5,503.5C 231.5,502.833 231.5,502.167 231.5,501.5C 233.848,501.408 235.514,500.408 236.5,498.5C 239.096,497.735 241.763,497.401 244.5,497.5 Z"/></g>
<g><path style="opacity:0.455" fill="#61a2e1" d="M 236.5,498.5 C 235.514,500.408 233.848,501.408 231.5,501.5C 232.659,499.75 234.326,498.75 236.5,498.5 Z"/></g>
<g><path style="opacity:0.827" fill="#5197de" d="M 479.5,497.5 C 483.144,498.477 485.477,500.811 486.5,504.5C 483.909,502.576 481.575,500.242 479.5,497.5 Z"/></g>
<g><path style="opacity:0.333" fill="#75b0e7" d="M 231.5,501.5 C 231.5,502.167 231.5,502.833 231.5,503.5C 231.167,503.5 230.833,503.5 230.5,503.5C 228.708,503.366 227.042,503.699 225.5,504.5C 226.895,502.621 228.895,501.621 231.5,501.5 Z"/></g>
<g><path style="opacity:0.031" fill="#d3e6f3" d="M 195.5,500.5 C 195.483,502.565 195.15,504.565 194.5,506.5C 193.833,506.5 193.167,506.5 192.5,506.5C 192.621,503.895 193.621,501.895 195.5,500.5 Z"/></g>
<g><path style="opacity:0.239" fill="#bdd8f3" d="M 230.5,503.5 C 227.943,505.607 224.943,506.941 221.5,507.5C 221.5,506.833 221.5,506.167 221.5,505.5C 222.708,504.766 224.041,504.433 225.5,504.5C 227.042,503.699 228.708,503.366 230.5,503.5 Z"/></g>
<g><path style="opacity:0.051" fill="#c6d9ec" d="M 477.5,497.5 C 478.167,497.5 478.833,497.5 479.5,497.5C 481.575,500.242 483.909,502.576 486.5,504.5C 488.769,506.242 490.102,508.576 490.5,511.5C 485.566,507.56 481.233,502.894 477.5,497.5 Z"/></g>
<g><path style="opacity:0.627" fill="#559cdf" d="M 221.5,505.5 C 221.5,506.167 221.5,506.833 221.5,507.5C 215.219,509.987 208.885,512.32 202.5,514.5C 206.38,511.549 210.714,509.049 215.5,507C 217.518,506.495 219.518,505.995 221.5,505.5 Z"/></g>
<g><path style="opacity:1" fill="#3a91de" d="M 200.5,500.5 C 199.424,504.988 197.091,508.655 193.5,511.5C 194.038,509.883 194.371,508.216 194.5,506.5C 196.667,504.67 198.667,502.67 200.5,500.5 Z"/></g>
<g><path style="opacity:0.114" fill="#d7e8f4" d="M 192.5,507.5 C 192.66,509.199 192.494,510.866 192,512.5C 191.329,513.252 190.496,513.586 189.5,513.5C 190.13,511.25 191.13,509.25 192.5,507.5 Z"/></g>
<g><path style="opacity:0.043" fill="#c7dcef" d="M 221.5,507.5 C 219.362,509.423 216.862,511.09 214,512.5C 207.318,514.759 200.818,517.426 194.5,520.5C 194.5,519.833 194.5,519.167 194.5,518.5C 195.167,518.5 195.5,518.167 195.5,517.5C 197.698,517.88 199.365,517.213 200.5,515.5C 200.842,514.662 201.508,514.328 202.5,514.5C 208.885,512.32 215.219,509.987 221.5,507.5 Z"/></g>
<g><path style="opacity:0.988" fill="#3e91dd" d="M 489.5,501.5 C 491.861,503.194 493.861,505.194 495.5,507.5C 497.229,508.641 498.229,510.307 498.5,512.5C 498.167,513.5 497.833,514.5 497.5,515.5C 496.378,514.37 495.044,513.703 493.5,513.5C 493.179,511.952 492.179,511.285 490.5,511.5C 490.102,508.576 488.769,506.242 486.5,504.5C 489.584,505.082 491.584,506.915 492.5,510C 493.332,510.688 493.998,510.521 494.5,509.5C 492.78,506.798 491.113,504.132 489.5,501.5 Z"/></g>
<g><path style="opacity:0.11" fill="#bed6ed" d="M 490.5,511.5 C 492.179,511.285 493.179,511.952 493.5,513.5C 491.821,513.715 490.821,513.048 490.5,511.5 Z"/></g>
<g><path style="opacity:0.01" fill="#fffcf3" d="M 500.5,512.5 C 503.167,513.833 503.167,515.167 500.5,516.5C 500.5,515.167 500.5,513.833 500.5,512.5 Z"/></g>
<g><path style="opacity:0.243" fill="#8abbe5" d="M 192.5,506.5 C 193.167,506.5 193.833,506.5 194.5,506.5C 194.371,508.216 194.038,509.883 193.5,511.5C 192.067,513.558 191.4,515.892 191.5,518.5C 192.5,518.5 193.5,518.5 194.5,518.5C 194.5,519.167 194.5,519.833 194.5,520.5C 194.167,520.5 193.833,520.5 193.5,520.5C 192.167,520.5 190.833,520.5 189.5,520.5C 189.5,518.5 189.5,516.5 189.5,514.5C 189.5,514.167 189.5,513.833 189.5,513.5C 190.496,513.586 191.329,513.252 192,512.5C 192.494,510.866 192.66,509.199 192.5,507.5C 192.5,507.167 192.5,506.833 192.5,506.5 Z"/></g>
<g><path style="opacity:0.235" fill="#9fc8ea" d="M 492.5,498.5 C 493.947,499.622 494.947,501.122 495.5,503C 496.094,503.464 496.761,503.631 497.5,503.5C 499.086,506.257 500.086,509.257 500.5,512.5C 500.5,513.833 500.5,515.167 500.5,516.5C 500.5,516.833 500.5,517.167 500.5,517.5C 499.167,517.5 497.833,517.5 496.5,517.5C 494.799,516.789 493.799,515.455 493.5,513.5C 495.044,513.703 496.378,514.37 497.5,515.5C 497.833,514.5 498.167,513.5 498.5,512.5C 498.229,510.307 497.229,508.641 495.5,507.5C 494.03,504.682 493.03,501.682 492.5,498.5 Z"/></g>
<g><path style="opacity:0.588" fill="#64a2df" d="M 200.5,515.5 C 199.365,517.213 197.698,517.88 195.5,517.5C 196.635,515.787 198.302,515.12 200.5,515.5 Z"/></g>
<g><path style="opacity:0.016" fill="#ecefee" d="M 496.5,517.5 C 497.833,517.5 499.167,517.5 500.5,517.5C 498.998,520.022 497.665,520.022 496.5,517.5 Z"/></g>
<g><path style="opacity:0.031" fill="#f0f1f0" d="M 189.5,514.5 C 189.5,516.5 189.5,518.5 189.5,520.5C 190.833,520.5 192.167,520.5 193.5,520.5C 192.545,522.71 191.045,523.043 189,521.5C 188.204,518.961 188.371,516.628 189.5,514.5 Z"/></g>
</svg>
