<?xml version="1.0" encoding="UTF-8"?>
<!DOCTYPE svg PUBLIC "-//W3C//DTD SVG 1.1//EN" "http://www.w3.org/Graphics/SVG/1.1/DTD/svg11.dtd">
<svg xmlns="http://www.w3.org/2000/svg" version="1.1" width="512px" height="512px" style="shape-rendering:geometricPrecision; text-rendering:geometricPrecision; image-rendering:optimizeQuality; fill-rule:evenodd; clip-rule:evenodd" xmlns:xlink="http://www.w3.org/1999/xlink">
<g><path style="opacity:0.993" fill="#384949" d="M 233.5,-0.5 C 240.833,-0.5 248.167,-0.5 255.5,-0.5C 255.5,40.8333 255.5,82.1667 255.5,123.5C 257.099,123.232 258.432,123.566 259.5,124.5C 258.167,124.5 256.833,124.5 255.5,124.5C 237.816,124.044 220.483,126.211 203.5,131C 201.167,131.667 198.833,131.667 196.5,131C 184.614,123.556 172.28,116.889 159.5,111C 150.72,107.339 141.72,105.839 132.5,106.5C 127.8,117.502 125.466,129.002 125.5,141C 126.014,151.962 127.181,162.795 129,173.5C 105.048,204.994 98.0482,239.994 108,278.5C 118.333,312.169 139.833,335.669 172.5,349C 185.806,354.242 199.473,358.076 213.5,360.5C 208.405,367.437 203.905,374.77 200,382.5C 198.263,386.661 197.263,390.995 197,395.5C 181.372,402.708 167.705,400.041 156,387.5C 146.902,369.069 132.736,356.235 113.5,349C 108.207,348.023 102.874,347.523 97.5,347.5C 97.9462,357.516 98.6129,367.516 99.5,377.5C 104.597,377.543 109.264,379.043 113.5,382C 116.667,385.167 119.833,388.333 123,391.5C 138.44,421.47 162.94,433.804 196.5,428.5C 196.5,453.833 196.5,479.167 196.5,504.5C 115.676,483.173 57.1761,434.84 21,359.5C 9.74652,333.811 2.57985,307.144 -0.5,279.5C -0.5,264.5 -0.5,249.5 -0.5,234.5C 12.3599,133.82 64.6933,61.987 156.5,19C 181.379,8.86392 207.046,2.36392 233.5,-0.5 Z"/></g>
<g><path style="opacity:1" fill="#293939" d="M 255.5,-0.5 C 262.833,-0.5 270.167,-0.5 277.5,-0.5C 376.861,12.3645 448.027,64.0312 491,154.5C 501.846,180.264 508.68,206.93 511.5,234.5C 511.5,249.5 511.5,264.5 511.5,279.5C 498.429,378.389 446.762,448.889 356.5,491C 343.254,496.804 329.588,501.304 315.5,504.5C 315.667,467.832 315.5,431.165 315,394.5C 314.259,388.868 312.593,383.535 310,378.5C 306.028,372.362 301.862,366.362 297.5,360.5C 324.522,356.446 348.856,346.28 370.5,330C 403.499,298.326 414.666,260.159 404,215.5C 403,212.5 402,209.5 401,206.5C 395.064,194.098 388.564,182.098 381.5,170.5C 387.297,148.629 386.63,126.962 379.5,105.5C 370.611,105.755 361.945,107.255 353.5,110C 339.114,117.193 324.781,124.359 310.5,131.5C 293.811,126.885 276.811,124.552 259.5,124.5C 258.432,123.566 257.099,123.232 255.5,123.5C 255.5,82.1667 255.5,40.8333 255.5,-0.5 Z"/></g>
<g><path style="opacity:1" fill="#e1e1e6" d="M 315.5,504.5 C 302.494,507.496 289.494,509.83 276.5,511.5C 269.5,511.5 262.5,511.5 255.5,511.5C 255.5,382.5 255.5,253.5 255.5,124.5C 256.833,124.5 258.167,124.5 259.5,124.5C 276.811,124.552 293.811,126.885 310.5,131.5C 324.781,124.359 339.114,117.193 353.5,110C 361.945,107.255 370.611,105.755 379.5,105.5C 386.63,126.962 387.297,148.629 381.5,170.5C 388.564,182.098 395.064,194.098 401,206.5C 402,209.5 403,212.5 404,215.5C 414.666,260.159 403.499,298.326 370.5,330C 348.856,346.28 324.522,356.446 297.5,360.5C 301.862,366.362 306.028,372.362 310,378.5C 312.593,383.535 314.259,388.868 315,394.5C 315.5,431.165 315.667,467.832 315.5,504.5 Z"/></g>
<g><path style="opacity:0.999" fill="#ebebf0" d="M 255.5,124.5 C 255.5,253.5 255.5,382.5 255.5,511.5C 248.5,511.5 241.5,511.5 234.5,511.5C 221.838,509.832 209.171,507.499 196.5,504.5C 196.5,479.167 196.5,453.833 196.5,428.5C 162.94,433.804 138.44,421.47 123,391.5C 119.833,388.333 116.667,385.167 113.5,382C 109.264,379.043 104.597,377.543 99.5,377.5C 98.6129,367.516 97.9462,357.516 97.5,347.5C 102.874,347.523 108.207,348.023 113.5,349C 132.736,356.235 146.902,369.069 156,387.5C 167.705,400.041 181.372,402.708 197,395.5C 197.263,390.995 198.263,386.661 200,382.5C 203.905,374.77 208.405,367.437 213.5,360.5C 199.473,358.076 185.806,354.242 172.5,349C 139.833,335.669 118.333,312.169 108,278.5C 98.0482,239.994 105.048,204.994 129,173.5C 127.181,162.795 126.014,151.962 125.5,141C 125.466,129.002 127.8,117.502 132.5,106.5C 141.72,105.839 150.72,107.339 159.5,111C 172.28,116.889 184.614,123.556 196.5,131C 198.833,131.667 201.167,131.667 203.5,131C 220.483,126.211 237.816,124.044 255.5,124.5 Z"/></g>
</svg>
