<?xml version="1.0" encoding="UTF-8"?>
<!DOCTYPE svg PUBLIC "-//W3C//DTD SVG 1.1//EN" "http://www.w3.org/Graphics/SVG/1.1/DTD/svg11.dtd">
<svg xmlns="http://www.w3.org/2000/svg" version="1.1" width="512px" height="512px" style="shape-rendering:geometricPrecision; text-rendering:geometricPrecision; image-rendering:optimizeQuality; fill-rule:evenodd; clip-rule:evenodd" xmlns:xlink="http://www.w3.org/1999/xlink">
<g><path style="opacity:0.997" fill="#0cb0fe" d="M 232.5,-0.5 C 247.833,-0.5 263.167,-0.5 278.5,-0.5C 378.271,12.4486 449.438,64.4486 492,155.5C 502.136,180.379 508.636,206.046 511.5,232.5C 511.5,247.833 511.5,263.167 511.5,278.5C 510.763,281.725 510.097,285.059 509.5,288.5C 474.781,248.758 440.281,208.758 406,168.5C 405.601,168.728 405.435,169.062 405.5,169.5C 404.937,167.68 403.771,166.347 402,165.5C 400.594,166.414 399.094,167.08 397.5,167.5C 393.824,163.459 390.157,159.459 386.5,155.5C 299.334,154.334 212.001,154.168 124.5,155C 125.044,155.717 125.711,156.217 126.5,156.5C 127.167,156.5 127.5,156.833 127.5,157.5C 148.618,178.257 169.618,199.257 190.5,220.5C 163.21,202.514 136.21,184.014 109.5,165C 108.668,164.312 108.002,164.479 107.5,165.5C 106.902,166.795 106.402,168.128 106,169.5C 105.333,226.5 105.333,283.5 106,340.5C 108.214,347.207 112.38,352.207 118.5,355.5C 117.668,356.329 118.001,357.162 119.5,358C 178.32,407.657 236.654,457.824 294.5,508.5C 289.189,509.645 283.856,510.645 278.5,511.5C 263.167,511.5 247.833,511.5 232.5,511.5C 132.727,498.549 61.5605,446.549 19,355.5C 8.86392,330.621 2.36392,304.954 -0.5,278.5C -0.5,263.167 -0.5,247.833 -0.5,232.5C 12.4486,132.729 64.4486,61.5622 155.5,19C 180.379,8.86392 206.046,2.36392 232.5,-0.5 Z"/></g>
<g><path style="opacity:1" fill="#7cd4fe" d="M 386.5,155.5 C 386.167,155.5 385.833,155.5 385.5,155.5C 298.998,155.167 212.665,155.501 126.5,156.5C 125.711,156.217 125.044,155.717 124.5,155C 212.001,154.168 299.334,154.334 386.5,155.5 Z"/></g>
<g><path style="opacity:1" fill="#fefefe" d="M 126.5,156.5 C 212.665,155.501 298.998,155.167 385.5,155.5C 342.54,185.652 299.207,215.318 255.5,244.5C 212.84,215.509 170.173,186.509 127.5,157.5C 127.5,156.833 127.167,156.5 126.5,156.5 Z"/></g>
<g><path style="opacity:1" fill="#0d94d9" d="M 385.5,155.5 C 385.833,155.5 386.167,155.5 386.5,155.5C 390.157,159.459 393.824,163.459 397.5,167.5C 351.954,199.86 305.954,231.694 259.5,263C 256.036,263.817 252.702,263.483 249.5,262C 229.654,248.304 209.987,234.47 190.5,220.5C 169.618,199.257 148.618,178.257 127.5,157.5C 170.173,186.509 212.84,215.509 255.5,244.5C 299.207,215.318 342.54,185.652 385.5,155.5 Z"/></g>
<g><path style="opacity:1" fill="#fefefe" d="M 190.5,220.5 C 209.987,234.47 229.654,248.304 249.5,262C 252.702,263.483 256.036,263.817 259.5,263C 305.954,231.694 351.954,199.86 397.5,167.5C 399.094,167.08 400.594,166.414 402,165.5C 403.771,166.347 404.937,167.68 405.5,169.5C 405.667,226.501 405.5,283.501 405,340.5C 403.325,348.049 398.825,352.883 391.5,355C 300.501,355.5 209.501,355.667 118.5,355.5C 112.38,352.207 108.214,347.207 106,340.5C 105.333,283.5 105.333,226.5 106,169.5C 106.402,168.128 106.902,166.795 107.5,165.5C 108.002,164.479 108.668,164.312 109.5,165C 136.21,184.014 163.21,202.514 190.5,220.5 Z"/></g>
<g><path style="opacity:1" fill="#0392d8" d="M 509.5,288.5 C 496.49,374.734 452.156,439.234 376.5,482C 350.741,495.753 323.407,504.587 294.5,508.5C 236.654,457.824 178.32,407.657 119.5,358C 118.001,357.162 117.668,356.329 118.5,355.5C 209.501,355.667 300.501,355.5 391.5,355C 398.825,352.883 403.325,348.049 405,340.5C 405.5,283.501 405.667,226.501 405.5,169.5C 405.435,169.062 405.601,168.728 406,168.5C 440.281,208.758 474.781,248.758 509.5,288.5 Z"/></g>
</svg>
