<?xml version="1.0" encoding="UTF-8"?>
<!DOCTYPE svg PUBLIC "-//W3C//DTD SVG 1.1//EN" "http://www.w3.org/Graphics/SVG/1.1/DTD/svg11.dtd">
<svg xmlns="http://www.w3.org/2000/svg" version="1.1" width="512px" height="512px" style="shape-rendering:geometricPrecision; text-rendering:geometricPrecision; image-rendering:optimizeQuality; fill-rule:evenodd; clip-rule:evenodd" xmlns:xlink="http://www.w3.org/1999/xlink">
<g><path style="opacity:0.994" fill="#41b3e5" d="M 233.5,-0.5 C 248.167,-0.5 262.833,-0.5 277.5,-0.5C 377.805,11.9821 449.305,63.9821 492,155.5C 502.296,180.684 508.796,206.684 511.5,233.5C 511.5,234.5 511.5,235.5 511.5,236.5C 510.761,236.631 510.094,236.464 509.5,236C 474.632,200.965 439.632,166.132 404.5,131.5C 305.405,170.033 206.405,208.866 107.5,248C 108.056,248.383 108.389,248.883 108.5,249.5C 145.119,287.121 182.119,323.788 219.5,359.5C 220.309,361.028 220.976,362.694 221.5,364.5C 221.263,365.791 221.596,366.791 222.5,367.5C 263.799,409.299 305.299,450.965 347,492.5C 347.464,493.094 347.631,493.761 347.5,494.5C 324.954,503.475 301.621,509.142 277.5,511.5C 262.833,511.5 248.167,511.5 233.5,511.5C 133.195,499.018 61.6947,447.018 19,355.5C 8.70332,330.313 2.20332,304.313 -0.5,277.5C -0.5,262.833 -0.5,248.167 -0.5,233.5C 11.9821,133.195 63.9821,61.6947 155.5,19C 180.687,8.70332 206.687,2.20332 233.5,-0.5 Z"/></g>
<g><path style="opacity:1" fill="#0191c8" d="M 404.5,131.5 C 439.632,166.132 474.632,200.965 509.5,236C 510.094,236.464 510.761,236.631 511.5,236.5C 511.5,250.167 511.5,263.833 511.5,277.5C 500.905,367.557 456.571,435.39 378.5,481C 368.502,486.384 358.169,490.884 347.5,494.5C 347.631,493.761 347.464,493.094 347,492.5C 305.299,450.965 263.799,409.299 222.5,367.5C 237.5,351.833 252.833,336.5 268.5,321.5C 294.148,340.809 319.815,360.142 345.5,379.5C 365.479,296.915 385.146,214.249 404.5,131.5 Z"/></g>
<g><path style="opacity:1" fill="#fefefe" d="M 404.5,131.5 C 385.146,214.249 365.479,296.915 345.5,379.5C 319.815,360.142 294.148,340.809 268.5,321.5C 255.985,312.075 243.652,302.408 231.5,292.5C 275.271,251.232 318.938,209.732 362.5,168C 307.68,203.769 253.013,240.102 198.5,277C 197.552,277.483 196.552,277.649 195.5,277.5C 166.5,268.167 137.5,258.833 108.5,249.5C 108.389,248.883 108.056,248.383 107.5,248C 206.405,208.866 305.405,170.033 404.5,131.5 Z"/></g>
<g><path style="opacity:1" fill="#d0d1d7" d="M 231.5,292.5 C 230.778,292.918 230.278,293.584 230,294.5C 227.481,318.019 224.648,341.352 221.5,364.5C 220.976,362.694 220.309,361.028 219.5,359.5C 212.493,333.142 205.327,306.809 198,280.5C 197.302,279.309 196.469,278.309 195.5,277.5C 196.552,277.649 197.552,277.483 198.5,277C 253.013,240.102 307.68,203.769 362.5,168C 318.938,209.732 275.271,251.232 231.5,292.5 Z"/></g>
<g><path style="opacity:1" fill="#0591c8" d="M 108.5,249.5 C 137.5,258.833 166.5,268.167 195.5,277.5C 196.469,278.309 197.302,279.309 198,280.5C 205.327,306.809 212.493,333.142 219.5,359.5C 182.119,323.788 145.119,287.121 108.5,249.5 Z"/></g>
<g><path style="opacity:1" fill="#b7b9be" d="M 231.5,292.5 C 243.652,302.408 255.985,312.075 268.5,321.5C 252.833,336.5 237.5,351.833 222.5,367.5C 221.596,366.791 221.263,365.791 221.5,364.5C 224.648,341.352 227.481,318.019 230,294.5C 230.278,293.584 230.778,292.918 231.5,292.5 Z"/></g>
</svg>
